<svg width="500" height="163" viewBox="0 0 500 163" fill="none" xmlns="http://www.w3.org/2000/svg">
<g filter="url(#filter0_d_203_9)">
<path d="M12.7402 34.4727L36.9629 43.2324V53.5537L4.05664 39.6143V32.3018L12.7402 34.4727ZM36.9629 27.3125L12.7021 36.2246L4.05664 38.2812V30.9688L36.9629 17.0293V27.3125ZM125.688 30.0166V51.9922C124.825 53.0332 123.492 54.1631 121.689 55.3818C119.886 56.5752 117.563 57.6035 114.719 58.4668C111.875 59.3301 108.435 59.7617 104.398 59.7617C100.818 59.7617 97.5551 59.1777 94.6098 58.0098C91.6645 56.8164 89.1254 55.0771 86.9926 52.792C84.8852 50.5068 83.2602 47.7139 82.1176 44.4131C80.975 41.0869 80.4037 37.291 80.4037 33.0254V29.5596C80.4037 25.2939 80.9496 21.498 82.0414 18.1719C83.1586 14.8457 84.7455 12.04 86.8021 9.75488C88.8588 7.46973 91.309 5.73047 94.1527 4.53711C96.9965 3.34375 100.158 2.74707 103.636 2.74707C108.46 2.74707 112.421 3.53418 115.519 5.1084C118.617 6.65723 120.978 8.81543 122.603 11.583C124.253 14.3252 125.269 17.4736 125.65 21.0283H114.567C114.287 19.1494 113.754 17.5117 112.967 16.1152C112.18 14.7187 111.05 13.627 109.578 12.8398C108.13 12.0527 106.251 11.6592 103.941 11.6592C102.037 11.6592 100.335 12.0527 98.8373 12.8398C97.3646 13.6016 96.1205 14.7314 95.1049 16.2295C94.0893 17.7275 93.3148 19.5811 92.7816 21.79C92.2484 23.999 91.9818 26.5635 91.9818 29.4834V33.0254C91.9818 35.9199 92.2611 38.4844 92.8197 40.7188C93.3783 42.9277 94.2035 44.7939 95.2953 46.3174C96.4125 47.8154 97.7836 48.9453 99.4086 49.707C101.034 50.4688 102.925 50.8496 105.083 50.8496C106.886 50.8496 108.384 50.6973 109.578 50.3926C110.796 50.0879 111.774 49.7197 112.51 49.2881C113.272 48.8311 113.856 48.3994 114.262 47.9932V38.167H103.827V30.0166H125.688ZM166.394 49.1357V17.791H177.363V59H167.042L166.394 49.1357ZM167.613 40.6807L170.85 40.6045C170.85 43.3467 170.533 45.8984 169.898 48.2598C169.263 50.5957 168.311 52.627 167.042 54.3535C165.772 56.0547 164.172 57.3877 162.243 58.3525C160.313 59.292 158.041 59.7617 155.425 59.7617C153.42 59.7617 151.566 59.4824 149.865 58.9238C148.189 58.3398 146.742 57.4385 145.523 56.2197C144.33 54.9756 143.39 53.3887 142.705 51.459C142.045 49.5039 141.714 47.1553 141.714 44.4131V17.791H152.683V44.4893C152.683 45.708 152.823 46.7363 153.102 47.5742C153.407 48.4121 153.826 49.0977 154.359 49.6309C154.892 50.1641 155.514 50.5449 156.225 50.7734C156.962 51.002 157.774 51.1162 158.663 51.1162C160.922 51.1162 162.7 50.6592 163.995 49.7451C165.315 48.8311 166.242 47.5869 166.775 46.0127C167.334 44.4131 167.613 42.6357 167.613 40.6807ZM205.12 0.5V59H194.113V0.5H205.12ZM232.725 26.5889V59H221.756V17.791H232.039L232.725 26.5889ZM231.125 36.9482H228.154C228.154 33.9014 228.548 31.1592 229.335 28.7217C230.122 26.2588 231.227 24.1641 232.648 22.4375C234.07 20.6855 235.759 19.3525 237.714 18.4385C239.694 17.499 241.903 17.0293 244.341 17.0293C246.271 17.0293 248.035 17.3086 249.635 17.8672C251.234 18.4258 252.605 19.3145 253.748 20.5332C254.916 21.752 255.805 23.3643 256.414 25.3701C257.049 27.376 257.366 29.8262 257.366 32.7207V59H246.321V32.6826C246.321 30.8545 246.067 29.4326 245.56 28.417C245.052 27.4014 244.303 26.6904 243.312 26.2842C242.348 25.8525 241.154 25.6367 239.732 25.6367C238.26 25.6367 236.978 25.9287 235.886 26.5127C234.819 27.0967 233.931 27.9092 233.22 28.9502C232.534 29.9658 232.014 31.1592 231.658 32.5303C231.303 33.9014 231.125 35.374 231.125 36.9482ZM297.882 49.1357V17.791H308.851V59H298.529L297.882 49.1357ZM299.101 40.6807L302.338 40.6045C302.338 43.3467 302.021 45.8984 301.386 48.2598C300.751 50.5957 299.799 52.627 298.529 54.3535C297.26 56.0547 295.66 57.3877 293.731 58.3525C291.801 59.292 289.529 59.7617 286.913 59.7617C284.907 59.7617 283.054 59.4824 281.353 58.9238C279.677 58.3398 278.23 57.4385 277.011 56.2197C275.818 54.9756 274.878 53.3887 274.193 51.459C273.532 49.5039 273.202 47.1553 273.202 44.4131V17.791H284.171V44.4893C284.171 45.708 284.311 46.7363 284.59 47.5742C284.895 48.4121 285.314 49.0977 285.847 49.6309C286.38 50.1641 287.002 50.5449 287.713 50.7734C288.449 51.002 289.262 51.1162 290.151 51.1162C292.41 51.1162 294.188 50.6592 295.483 49.7451C296.803 48.8311 297.73 47.5869 298.263 46.0127C298.821 44.4131 299.101 42.6357 299.101 40.6807ZM335.998 26.7793V59H325.03V17.791H335.351L335.998 26.7793ZM348.414 17.5244L348.224 27.6934C347.691 27.6172 347.043 27.5537 346.282 27.5029C345.545 27.4268 344.872 27.3887 344.263 27.3887C342.714 27.3887 341.369 27.5918 340.226 27.998C339.109 28.3789 338.169 28.9502 337.408 29.7119C336.671 30.4736 336.113 31.4004 335.732 32.4922C335.376 33.584 335.173 34.8281 335.122 36.2246L332.913 35.5391C332.913 32.873 333.18 30.4229 333.713 28.1885C334.246 25.9287 335.021 23.9609 336.037 22.2852C337.078 20.6094 338.347 19.3145 339.845 18.4004C341.343 17.4863 343.057 17.0293 344.987 17.0293C345.596 17.0293 346.218 17.0801 346.853 17.1816C347.488 17.2578 348.008 17.3721 348.414 17.5244ZM382.341 49.707V31.3496C382.341 30.0293 382.126 28.8994 381.694 27.96C381.262 26.9951 380.589 26.2461 379.675 25.7129C378.787 25.1797 377.631 24.9131 376.21 24.9131C374.991 24.9131 373.937 25.1289 373.048 25.5605C372.16 25.9668 371.474 26.5635 370.992 27.3506C370.509 28.1123 370.268 29.0137 370.268 30.0547H359.299C359.299 28.3027 359.706 26.6396 360.518 25.0654C361.331 23.4912 362.511 22.1074 364.06 20.9141C365.609 19.6953 367.45 18.7432 369.583 18.0576C371.741 17.3721 374.153 17.0293 376.819 17.0293C380.018 17.0293 382.862 17.5625 385.35 18.6289C387.838 19.6953 389.794 21.2949 391.215 23.4277C392.663 25.5605 393.386 28.2266 393.386 31.4258V49.0596C393.386 51.3193 393.526 53.1729 393.805 54.6201C394.085 56.042 394.491 57.2861 395.024 58.3525V59H383.941C383.408 57.8828 383.002 56.4863 382.722 54.8105C382.468 53.1094 382.341 51.4082 382.341 49.707ZM383.789 33.9014L383.865 40.1094H377.733C376.286 40.1094 375.029 40.2744 373.962 40.6045C372.896 40.9346 372.02 41.4043 371.335 42.0137C370.649 42.5977 370.141 43.2832 369.811 44.0703C369.506 44.8574 369.354 45.7207 369.354 46.6602C369.354 47.5996 369.57 48.4502 370.002 49.2119C370.433 49.9482 371.055 50.5322 371.868 50.9639C372.68 51.3701 373.632 51.5732 374.724 51.5732C376.375 51.5732 377.809 51.2432 379.028 50.583C380.247 49.9229 381.186 49.1104 381.846 48.1455C382.532 47.1807 382.887 46.2666 382.913 45.4033L385.807 50.0498C385.401 51.0908 384.842 52.1699 384.131 53.2871C383.446 54.4043 382.57 55.458 381.504 56.4482C380.437 57.4131 379.155 58.2129 377.657 58.8477C376.159 59.457 374.381 59.7617 372.325 59.7617C369.71 59.7617 367.336 59.2412 365.203 58.2002C363.095 57.1338 361.42 55.6738 360.175 53.8203C358.957 51.9414 358.347 49.8086 358.347 47.4219C358.347 45.2637 358.754 43.3467 359.566 41.6709C360.379 39.9951 361.572 38.5859 363.146 37.4434C364.746 36.2754 366.739 35.3994 369.126 34.8154C371.512 34.2061 374.28 33.9014 377.428 33.9014H383.789ZM55.7697 130.233H41.6398V121.321H55.7697C57.9533 121.321 59.7307 120.966 61.1018 120.255C62.4729 119.519 63.4758 118.503 64.1105 117.208C64.7453 115.913 65.0627 114.453 65.0627 112.828C65.0627 111.178 64.7453 109.642 64.1105 108.22C63.4758 106.798 62.4729 105.655 61.1018 104.792C59.7307 103.929 57.9533 103.497 55.7697 103.497H45.6008V150H34.175V94.5469H55.7697C60.1115 94.5469 63.8312 95.334 66.9289 96.9082C70.052 98.457 72.4387 100.603 74.0891 103.345C75.7395 106.087 76.5646 109.223 76.5646 112.752C76.5646 116.332 75.7395 119.43 74.0891 122.045C72.4387 124.66 70.052 126.679 66.9289 128.101C63.8312 129.522 60.1115 130.233 55.7697 130.233ZM103.141 108.791V150H92.1342V108.791H103.141ZM91.4486 98.0508C91.4486 96.4512 92.0072 95.1309 93.1244 94.0898C94.2416 93.0488 95.7396 92.5283 97.6186 92.5283C99.4721 92.5283 100.957 93.0488 102.075 94.0898C103.217 95.1309 103.788 96.4512 103.788 98.0508C103.788 99.6504 103.217 100.971 102.075 102.012C100.957 103.053 99.4721 103.573 97.6186 103.573C95.7396 103.573 94.2416 103.053 93.1244 102.012C92.0072 100.971 91.4486 99.6504 91.4486 98.0508ZM142.286 138.612C142.286 137.825 142.057 137.114 141.6 136.479C141.143 135.845 140.293 135.261 139.048 134.728C137.83 134.169 136.065 133.661 133.754 133.204C131.672 132.747 129.73 132.176 127.927 131.49C126.15 130.779 124.601 129.929 123.281 128.938C121.986 127.948 120.97 126.78 120.234 125.435C119.498 124.063 119.129 122.502 119.129 120.75C119.129 119.023 119.498 117.398 120.234 115.875C120.996 114.352 122.075 113.006 123.471 111.838C124.893 110.645 126.62 109.718 128.651 109.058C130.708 108.372 133.018 108.029 135.583 108.029C139.163 108.029 142.235 108.601 144.799 109.743C147.389 110.886 149.37 112.46 150.741 114.466C152.137 116.446 152.836 118.706 152.836 121.245H141.867C141.867 120.179 141.638 119.227 141.181 118.389C140.75 117.525 140.064 116.853 139.125 116.37C138.211 115.862 137.017 115.608 135.545 115.608C134.326 115.608 133.272 115.824 132.383 116.256C131.495 116.662 130.809 117.221 130.327 117.932C129.87 118.617 129.641 119.379 129.641 120.217C129.641 120.852 129.768 121.423 130.022 121.931C130.301 122.413 130.746 122.857 131.355 123.264C131.964 123.67 132.752 124.051 133.716 124.406C134.707 124.736 135.925 125.041 137.373 125.32C140.343 125.93 142.997 126.729 145.333 127.72C147.669 128.685 149.522 130.005 150.893 131.681C152.264 133.331 152.95 135.502 152.95 138.193C152.95 140.021 152.544 141.697 151.731 143.221C150.919 144.744 149.751 146.077 148.227 147.22C146.704 148.337 144.876 149.213 142.743 149.848C140.635 150.457 138.261 150.762 135.621 150.762C131.787 150.762 128.537 150.076 125.871 148.705C123.23 147.334 121.224 145.595 119.853 143.487C118.507 141.354 117.835 139.171 117.835 136.937H128.232C128.283 138.435 128.664 139.641 129.375 140.555C130.111 141.469 131.038 142.129 132.155 142.535C133.297 142.941 134.529 143.145 135.849 143.145C137.271 143.145 138.452 142.954 139.391 142.573C140.331 142.167 141.042 141.634 141.524 140.974C142.032 140.288 142.286 139.501 142.286 138.612ZM190.114 140.707V122.35C190.114 121.029 189.898 119.899 189.467 118.96C189.035 117.995 188.362 117.246 187.448 116.713C186.559 116.18 185.404 115.913 183.982 115.913C182.763 115.913 181.71 116.129 180.821 116.561C179.932 116.967 179.247 117.563 178.764 118.351C178.282 119.112 178.041 120.014 178.041 121.055H167.072C167.072 119.303 167.478 117.64 168.291 116.065C169.103 114.491 170.284 113.107 171.833 111.914C173.382 110.695 175.222 109.743 177.355 109.058C179.513 108.372 181.926 108.029 184.592 108.029C187.791 108.029 190.635 108.562 193.123 109.629C195.611 110.695 197.566 112.295 198.988 114.428C200.435 116.561 201.159 119.227 201.159 122.426V140.06C201.159 142.319 201.299 144.173 201.578 145.62C201.857 147.042 202.263 148.286 202.797 149.353V150H191.714C191.18 148.883 190.774 147.486 190.495 145.811C190.241 144.109 190.114 142.408 190.114 140.707ZM191.561 124.901L191.637 131.109H185.506C184.058 131.109 182.802 131.274 181.735 131.604C180.669 131.935 179.793 132.404 179.107 133.014C178.422 133.598 177.914 134.283 177.584 135.07C177.279 135.857 177.127 136.721 177.127 137.66C177.127 138.6 177.343 139.45 177.774 140.212C178.206 140.948 178.828 141.532 179.64 141.964C180.453 142.37 181.405 142.573 182.497 142.573C184.147 142.573 185.582 142.243 186.801 141.583C188.019 140.923 188.959 140.11 189.619 139.146C190.304 138.181 190.66 137.267 190.685 136.403L193.58 141.05C193.174 142.091 192.615 143.17 191.904 144.287C191.219 145.404 190.343 146.458 189.276 147.448C188.21 148.413 186.928 149.213 185.429 149.848C183.931 150.457 182.154 150.762 180.097 150.762C177.482 150.762 175.108 150.241 172.975 149.2C170.868 148.134 169.192 146.674 167.948 144.82C166.729 142.941 166.12 140.809 166.12 138.422C166.12 136.264 166.526 134.347 167.339 132.671C168.151 130.995 169.345 129.586 170.919 128.443C172.518 127.275 174.512 126.399 176.898 125.815C179.285 125.206 182.053 124.901 185.201 124.901H191.561ZM237.6 108.791V116.561H213.605V108.791H237.6ZM219.547 98.6221H230.516V137.584C230.516 138.777 230.668 139.691 230.973 140.326C231.303 140.961 231.785 141.405 232.42 141.659C233.055 141.888 233.854 142.002 234.819 142.002C235.505 142.002 236.114 141.977 236.647 141.926C237.206 141.85 237.676 141.773 238.057 141.697L238.095 149.771C237.155 150.076 236.14 150.317 235.048 150.495C233.956 150.673 232.75 150.762 231.43 150.762C229.018 150.762 226.91 150.368 225.107 149.581C223.33 148.769 221.959 147.474 220.994 145.696C220.029 143.919 219.547 141.583 219.547 138.688V98.6221ZM248.904 129.814V129.015C248.904 125.993 249.335 123.213 250.198 120.674C251.062 118.109 252.319 115.888 253.969 114.009C255.619 112.13 257.651 110.67 260.063 109.629C262.475 108.562 265.242 108.029 268.365 108.029C271.488 108.029 274.269 108.562 276.706 109.629C279.144 110.67 281.188 112.13 282.838 114.009C284.514 115.888 285.783 118.109 286.647 120.674C287.51 123.213 287.942 125.993 287.942 129.015V129.814C287.942 132.811 287.51 135.591 286.647 138.155C285.783 140.694 284.514 142.916 282.838 144.82C281.188 146.699 279.156 148.159 276.744 149.2C274.332 150.241 271.565 150.762 268.442 150.762C265.319 150.762 262.538 150.241 260.101 149.2C257.689 148.159 255.645 146.699 253.969 144.82C252.319 142.916 251.062 140.694 250.198 138.155C249.335 135.591 248.904 132.811 248.904 129.814ZM259.872 129.015V129.814C259.872 131.541 260.025 133.153 260.329 134.651C260.634 136.149 261.116 137.47 261.777 138.612C262.462 139.729 263.351 140.605 264.443 141.24C265.534 141.875 266.867 142.192 268.442 142.192C269.965 142.192 271.273 141.875 272.364 141.24C273.456 140.605 274.332 139.729 274.992 138.612C275.653 137.47 276.135 136.149 276.44 134.651C276.77 133.153 276.935 131.541 276.935 129.814V129.015C276.935 127.339 276.77 125.765 276.44 124.292C276.135 122.794 275.64 121.474 274.954 120.331C274.294 119.163 273.418 118.249 272.326 117.589C271.235 116.929 269.914 116.599 268.365 116.599C266.817 116.599 265.496 116.929 264.404 117.589C263.338 118.249 262.462 119.163 261.777 120.331C261.116 121.474 260.634 122.794 260.329 124.292C260.025 125.765 259.872 127.339 259.872 129.015ZM315.889 142.002L325.03 108.791H336.494L322.592 150H315.661L315.889 142.002ZM309.605 108.791L318.784 142.04L318.974 150H312.004L298.103 108.791H309.605ZM370.839 140.707V122.35C370.839 121.029 370.624 119.899 370.192 118.96C369.76 117.995 369.087 117.246 368.173 116.713C367.285 116.18 366.129 115.913 364.708 115.913C363.489 115.913 362.435 116.129 361.546 116.561C360.658 116.967 359.972 117.563 359.49 118.351C359.007 119.112 358.766 120.014 358.766 121.055H347.797C347.797 119.303 348.204 117.64 349.016 116.065C349.829 114.491 351.009 113.107 352.558 111.914C354.107 110.695 355.948 109.743 358.081 109.058C360.239 108.372 362.651 108.029 365.317 108.029C368.516 108.029 371.36 108.562 373.848 109.629C376.337 110.695 378.292 112.295 379.713 114.428C381.161 116.561 381.884 119.227 381.884 122.426V140.06C381.884 142.319 382.024 144.173 382.303 145.62C382.583 147.042 382.989 148.286 383.522 149.353V150H372.439C371.906 148.883 371.5 147.486 371.22 145.811C370.966 144.109 370.839 142.408 370.839 140.707ZM372.287 124.901L372.363 131.109H366.231C364.784 131.109 363.527 131.274 362.461 131.604C361.394 131.935 360.518 132.404 359.833 133.014C359.147 133.598 358.639 134.283 358.309 135.07C358.004 135.857 357.852 136.721 357.852 137.66C357.852 138.6 358.068 139.45 358.5 140.212C358.931 140.948 359.553 141.532 360.366 141.964C361.178 142.37 362.13 142.573 363.222 142.573C364.873 142.573 366.307 142.243 367.526 141.583C368.745 140.923 369.684 140.11 370.344 139.146C371.03 138.181 371.385 137.267 371.411 136.403L374.305 141.05C373.899 142.091 373.34 143.17 372.629 144.287C371.944 145.404 371.068 146.458 370.002 147.448C368.935 148.413 367.653 149.213 366.155 149.848C364.657 150.457 362.879 150.762 360.823 150.762C358.208 150.762 355.834 150.241 353.701 149.2C351.593 148.134 349.918 146.674 348.673 144.82C347.455 142.941 346.845 140.809 346.845 138.422C346.845 136.264 347.252 134.347 348.064 132.671C348.877 130.995 350.07 129.586 351.644 128.443C353.244 127.275 355.237 126.399 357.624 125.815C360.01 125.206 362.778 124.901 365.926 124.901H372.287ZM449.053 94.5469L428.715 154.761H420.564L440.902 94.5469H449.053ZM486.788 126.996L462.375 118.274V108.029L495.548 121.969V129.319L486.788 126.996ZM462.375 134.309L486.826 125.396L495.548 123.302V130.614L462.375 144.554V134.309Z" fill="#366A36"/>
<path d="M12.7402 34.4727L13.0803 33.5323L13.0323 33.5149L12.9828 33.5025L12.7402 34.4727ZM36.9629 43.2324H37.9629V42.5307L37.303 42.292L36.9629 43.2324ZM36.9629 53.5537L36.5728 54.4745L37.9629 55.0633V53.5537H36.9629ZM4.05664 39.6143H3.05664V40.2767L3.66658 40.535L4.05664 39.6143ZM4.05664 32.3018L4.29918 31.3316L3.05664 31.021V32.3018H4.05664ZM36.9629 27.3125L37.3077 28.2512L37.9629 28.0105V27.3125H36.9629ZM12.7021 36.2246L12.9336 37.1975L12.9913 37.1837L13.047 37.1633L12.7021 36.2246ZM4.05664 38.2812H3.05664V39.547L4.28807 39.2541L4.05664 38.2812ZM4.05664 30.9688L3.66658 30.048L3.05664 30.3063V30.9688H4.05664ZM36.9629 17.0293H37.9629V15.5197L36.5728 16.1085L36.9629 17.0293ZM12.4002 35.4131L36.6228 44.1728L37.303 42.292L13.0803 33.5323L12.4002 35.4131ZM35.9629 43.2324V53.5537H37.9629V43.2324H35.9629ZM37.3529 52.6329L4.4467 38.6935L3.66658 40.535L36.5728 54.4745L37.3529 52.6329ZM5.05664 39.6143V32.3018H3.05664V39.6143H5.05664ZM3.8141 33.2719L12.4977 35.4428L12.9828 33.5025L4.29918 31.3316L3.8141 33.2719ZM36.6181 26.3738L12.3573 35.2859L13.047 37.1633L37.3077 28.2512L36.6181 26.3738ZM12.4707 35.2518L3.82521 37.3084L4.28807 39.2541L12.9336 37.1975L12.4707 35.2518ZM5.05664 38.2812V30.9688H3.05664V38.2812H5.05664ZM4.4467 31.8895L37.3529 17.9501L36.5728 16.1085L3.66658 30.048L4.4467 31.8895ZM35.9629 17.0293V27.3125H37.9629V17.0293H35.9629ZM125.688 30.0166H126.688V29.0166H125.688V30.0166ZM125.688 51.9922L126.458 52.6305L126.688 52.3529V51.9922H125.688ZM121.689 55.3818L122.241 56.2157L122.249 56.2103L121.689 55.3818ZM94.6098 58.0098L94.2342 58.9366L94.2411 58.9393L94.6098 58.0098ZM86.9926 52.792L86.2574 53.4699L86.2615 53.4743L86.9926 52.792ZM82.1176 44.4131L81.1718 44.738L81.1726 44.7402L82.1176 44.4131ZM82.0414 18.1719L81.0934 17.8535L81.0913 17.86L82.0414 18.1719ZM115.519 5.1084L115.066 5.9999L115.072 6.00283L115.519 5.1084ZM122.603 11.583L121.741 12.0894L121.746 12.0987L122.603 11.583ZM125.65 21.0283V22.0283H126.763L126.644 20.9218L125.65 21.0283ZM114.567 21.0283L113.578 21.1754L113.704 22.0283H114.567V21.0283ZM109.578 12.8398L109.1 13.7184L109.106 13.7218L109.578 12.8398ZM98.8373 12.8398L99.2967 13.7281L99.3024 13.7251L98.8373 12.8398ZM92.8197 40.7188L91.8496 40.9613L91.8502 40.9639L92.8197 40.7188ZM95.2953 46.3174L94.4825 46.8999L94.488 46.9076L94.4937 46.9152L95.2953 46.3174ZM109.578 50.3926L109.335 49.4224L109.33 49.4237L109.578 50.3926ZM112.51 49.2881L113.016 50.1508L113.025 50.1456L112.51 49.2881ZM114.262 47.9932L114.969 48.7003L115.262 48.4074V47.9932H114.262ZM114.262 38.167H115.262V37.167H114.262V38.167ZM103.827 38.167H102.827V39.167H103.827V38.167ZM103.827 30.0166V29.0166H102.827V30.0166H103.827ZM124.688 30.0166V51.9922H126.688V30.0166H124.688ZM124.918 51.3539C124.141 52.2913 122.895 53.3597 121.129 54.5534L122.249 56.2103C124.089 54.9665 125.509 53.7751 126.458 52.6305L124.918 51.3539ZM121.137 54.548C119.439 55.6721 117.212 56.665 114.429 57.5099L115.01 59.4237C117.914 58.542 120.334 57.4783 122.241 56.2157L121.137 54.548ZM114.429 57.5099C111.706 58.3364 108.369 58.7617 104.398 58.7617V60.7617C108.501 60.7617 112.045 60.3237 115.01 59.4237L114.429 57.5099ZM104.398 58.7617C100.928 58.7617 97.7921 58.196 94.9784 57.0802L94.2411 58.9393C97.318 60.1595 100.708 60.7617 104.398 60.7617V58.7617ZM94.9853 57.083C92.1725 55.9433 89.7554 54.2866 87.7236 52.1097L86.2615 53.4743C88.4953 55.8677 91.1564 57.6895 94.2342 58.9366L94.9853 57.083ZM87.7277 52.1141C85.7245 49.942 84.1657 47.2727 83.0626 44.086L81.1726 44.7402C82.3546 48.155 84.0458 51.0717 86.2575 53.4699L87.7277 52.1141ZM83.0633 44.0882C81.9634 40.8861 81.4037 37.2032 81.4037 33.0254H79.4037C79.4037 37.3788 79.9866 41.2877 81.1718 44.738L83.0633 44.0882ZM81.4037 33.0254V29.5596H79.4037V33.0254H81.4037ZM81.4037 29.5596C81.4037 25.3776 81.9391 21.6901 82.9915 18.4837L81.0913 17.86C79.9601 21.306 79.4037 25.2103 79.4037 29.5596H81.4037ZM82.9894 18.4903C84.0691 15.2755 85.5923 12.594 87.5454 10.4238L86.0589 9.08592C83.8987 11.4861 82.248 14.4159 81.0934 17.8535L82.9894 18.4903ZM87.5454 10.4238C89.5031 8.24867 91.8315 6.59568 94.5397 5.45921L93.7658 3.61501C90.7865 4.86525 88.2145 6.69078 86.0589 9.08592L87.5454 10.4238ZM94.5397 5.45921C97.2462 4.32345 100.274 3.74707 103.636 3.74707V1.74707C100.042 1.74707 96.7468 2.36405 93.7658 3.61501L94.5397 5.45921ZM103.636 3.74707C108.361 3.74707 112.152 4.51921 115.066 5.99988L115.972 4.21691C112.69 2.54915 108.56 1.74707 103.636 1.74707V3.74707ZM115.072 6.00283C118.011 7.4723 120.221 9.50181 121.741 12.0893L123.465 11.0767C121.735 8.12905 119.223 5.84215 115.966 4.21397L115.072 6.00283ZM121.746 12.0987C123.313 14.7022 124.288 17.7079 124.655 21.1349L126.644 20.9218C126.25 17.2394 125.194 13.9482 123.46 11.0673L121.746 12.0987ZM125.65 20.0283H114.567V22.0283H125.65V20.0283ZM115.556 20.8813C115.262 18.9034 114.695 17.1449 113.838 15.6242L112.096 16.6062C112.813 17.8785 113.313 19.3955 113.578 21.1754L115.556 20.8813ZM113.838 15.6242C112.954 14.055 111.682 12.8307 110.049 11.9579L109.106 13.7218C110.418 14.4232 111.406 15.3825 112.096 16.6062L113.838 15.6242ZM110.055 11.9614C108.414 11.0689 106.355 10.6592 103.941 10.6592V12.6592C106.148 12.6592 107.846 13.0366 109.1 13.7183L110.055 11.9614ZM103.941 10.6592C101.895 10.6592 100.031 11.0831 98.3722 11.9546L99.3024 13.7251C100.64 13.0224 102.178 12.6592 103.941 12.6592V10.6592ZM98.3779 11.9516C96.7438 12.7968 95.3776 14.0452 94.2772 15.6683L95.9326 16.7907C96.8634 15.4177 97.9855 14.4063 99.2967 13.7281L98.3779 11.9516ZM94.2772 15.6683C93.1795 17.2874 92.364 19.2584 91.8096 21.5554L93.7537 22.0247C94.2657 19.9037 94.999 18.1677 95.9326 16.7907L94.2772 15.6683ZM91.8096 21.5554C91.2534 23.8594 90.9818 26.5056 90.9818 29.4834H92.9818C92.9818 26.6214 93.2434 24.1387 93.7537 22.0247L91.8096 21.5554ZM90.9818 29.4834V33.0254H92.9818V29.4834H90.9818ZM90.9818 33.0254C90.9818 35.9818 91.2669 38.6304 91.8496 40.9613L93.7899 40.4762C93.2554 38.3384 92.9818 35.858 92.9818 33.0254H90.9818ZM91.8502 40.9639C92.4331 43.2687 93.304 45.2555 94.4825 46.8999L96.1081 45.7349C95.103 44.3324 94.3236 42.5867 93.7892 40.4736L91.8502 40.9639ZM94.4937 46.9152C95.7051 48.5397 97.2038 49.7779 98.9842 50.6125L99.833 48.8016C98.3634 48.1127 97.1199 47.0912 96.0969 45.7196L94.4937 46.9152ZM98.9842 50.6125C100.766 51.4478 102.808 51.8496 105.083 51.8496V49.8496C103.043 49.8496 101.301 49.4897 99.833 48.8016L98.9842 50.6125ZM105.083 51.8496C106.935 51.8496 108.523 51.6939 109.825 51.3615L109.33 49.4237C108.246 49.7006 106.837 49.8496 105.083 49.8496V51.8496ZM109.82 51.3627C111.092 51.0447 112.169 50.6475 113.016 50.1508L112.004 48.4254C111.379 48.792 110.501 49.131 109.335 49.4224L109.82 51.3627ZM113.025 50.1456C113.823 49.6667 114.483 49.1867 114.969 48.7003L113.555 47.2861C113.229 47.6121 112.721 47.9954 111.996 48.4306L113.025 50.1456ZM115.262 47.9932V38.167H113.262V47.9932H115.262ZM114.262 37.167H103.827V39.167H114.262V37.167ZM104.827 38.167V30.0166H102.827V38.167H104.827ZM103.827 31.0166H125.688V29.0166H103.827V31.0166ZM166.394 49.1357H165.394V49.1685L165.396 49.2012L166.394 49.1357ZM166.394 17.791V16.791H165.394V17.791H166.394ZM177.363 17.791H178.363V16.791H177.363V17.791ZM177.363 59V60H178.363V59H177.363ZM167.042 59L166.044 59.0655L166.105 60H167.042V59ZM167.613 40.6807L167.589 39.6809L166.613 39.7039V40.6807H167.613ZM170.85 40.6045H171.85V39.5807L170.827 39.6048L170.85 40.6045ZM169.898 48.2598L170.863 48.522L170.864 48.5194L169.898 48.2598ZM167.042 54.3535L167.843 54.9516L167.847 54.9459L167.042 54.3535ZM162.243 58.3525L162.681 59.2517L162.69 59.247L162.243 58.3525ZM149.865 58.9238L149.536 59.8681L149.544 59.8711L149.553 59.8739L149.865 58.9238ZM145.523 56.2197L144.801 56.912L144.809 56.9195L144.816 56.9268L145.523 56.2197ZM142.705 51.459L141.757 51.7789L141.76 51.7863L141.762 51.7937L142.705 51.459ZM141.714 17.791V16.791H140.714V17.791H141.714ZM152.683 17.791H153.683V16.791H152.683V17.791ZM153.102 47.5742L152.153 47.8904L152.158 47.9033L152.162 47.916L153.102 47.5742ZM156.225 50.7734L155.919 51.7255L155.929 51.7285L156.225 50.7734ZM163.995 49.7451L163.425 48.9229L163.418 48.9281L163.995 49.7451ZM166.775 46.0127L165.831 45.683L165.828 45.6919L166.775 46.0127ZM167.394 49.1357V17.791H165.394V49.1357H167.394ZM166.394 18.791H177.363V16.791H166.394V18.791ZM176.363 17.791V59H178.363V17.791H176.363ZM177.363 58H167.042V60H177.363V58ZM168.039 58.9345L167.392 49.0702L165.396 49.2012L166.044 59.0655L168.039 58.9345ZM167.636 41.6804L170.874 41.6042L170.827 39.6048L167.589 39.6809L167.636 41.6804ZM169.85 40.6045C169.85 43.2695 169.542 45.733 168.932 48.0002L170.864 48.5194C171.524 46.0638 171.85 43.4239 171.85 40.6045H169.85ZM168.933 47.9975C168.326 50.2298 167.424 52.1459 166.236 53.7611L167.847 54.9459C169.199 53.108 170.2 50.9616 170.863 48.522L168.933 47.9975ZM166.24 53.7554C165.066 55.3294 163.588 56.5619 161.796 57.4581L162.69 59.247C164.757 58.2135 166.479 56.7799 167.843 54.9516L166.24 53.7554ZM161.805 57.4534C160.038 58.3136 157.922 58.7617 155.425 58.7617V60.7617C158.16 60.7617 160.588 60.2704 162.68 59.2516L161.805 57.4534ZM155.425 58.7617C153.513 58.7617 151.766 58.4956 150.177 57.9737L149.553 59.8739C151.366 60.4693 153.326 60.7617 155.425 60.7617V58.7617ZM150.194 57.9795C148.656 57.4436 147.339 56.6216 146.23 55.5126L144.816 56.9268C146.144 58.2553 147.722 59.2361 149.536 59.8681L150.194 57.9795ZM146.245 55.5275C145.166 54.4029 144.294 52.9452 143.647 51.1242L141.762 51.7937C142.487 53.8321 143.493 55.5482 144.801 56.912L146.245 55.5275ZM143.652 51.1391C143.036 49.3147 142.714 47.08 142.714 44.4131H140.714C140.714 47.2305 141.053 49.6932 141.757 51.7789L143.652 51.1391ZM142.714 44.4131V17.791H140.714V44.4131H142.714ZM141.714 18.791H152.683V16.791H141.714V18.791ZM151.683 17.791V44.4893H153.683V17.791H151.683ZM151.683 44.4893C151.683 45.7777 151.83 46.9201 152.153 47.8904L154.051 47.258C153.816 46.5526 153.683 45.6383 153.683 44.4893H151.683ZM152.162 47.916C152.508 48.8664 152.998 49.6843 153.652 50.338L155.066 48.9238C154.653 48.511 154.306 47.9578 154.042 47.2325L152.162 47.916ZM153.652 50.338C154.296 50.9824 155.055 51.4478 155.919 51.7255L156.531 49.8214C155.973 49.642 155.488 49.3458 155.066 48.9238L153.652 50.338ZM155.929 51.7285C156.774 51.9909 157.689 52.1162 158.663 52.1162V50.1162C157.86 50.1162 157.149 50.013 156.522 49.8184L155.929 51.7285ZM158.663 52.1162C161.044 52.1162 163.05 51.6362 164.571 50.5621L163.418 48.9281C162.35 49.6822 160.801 50.1162 158.663 50.1162V52.1162ZM164.564 50.5673C166.067 49.5265 167.123 48.1035 167.722 46.3335L165.828 45.6919C165.361 47.0704 164.563 48.1356 163.426 48.9229L164.564 50.5673ZM167.719 46.3424C168.32 44.6219 168.613 42.731 168.613 40.6807H166.613C166.613 42.5405 166.347 44.2043 165.831 45.683L167.719 46.3424ZM205.12 0.5H206.12V-0.5H205.12V0.5ZM205.12 59V60H206.12V59H205.12ZM194.113 59H193.113V60H194.113V59ZM194.113 0.5V-0.5H193.113V0.5H194.113ZM204.12 0.5V59H206.12V0.5H204.12ZM205.12 58H194.113V60H205.12V58ZM195.113 59V0.5H193.113V59H195.113ZM194.113 1.5H205.12V-0.5H194.113V1.5ZM232.725 26.5889H233.725V26.55L233.722 26.5112L232.725 26.5889ZM232.725 59V60H233.725V59H232.725ZM221.756 59H220.756V60H221.756V59ZM221.756 17.791V16.791H220.756V17.791H221.756ZM232.039 17.791L233.036 17.7133L232.964 16.791H232.039V17.791ZM231.125 36.9482V37.9482H232.125V36.9482H231.125ZM228.154 36.9482H227.154V37.9482H228.154V36.9482ZM229.335 28.7217L230.287 29.029L230.287 29.0261L229.335 28.7217ZM232.648 22.4375L233.42 23.0732L233.425 23.0677L232.648 22.4375ZM237.714 18.4385L238.137 19.3444L238.142 19.342L237.714 18.4385ZM253.748 20.5332L253.018 21.2172L253.026 21.2251L253.748 20.5332ZM256.414 25.3701L255.457 25.6608L255.461 25.6718L256.414 25.3701ZM257.366 59V60H258.366V59H257.366ZM246.321 59H245.321V60H246.321V59ZM243.312 26.2842L242.904 27.197L242.918 27.2034L242.933 27.2093L243.312 26.2842ZM235.886 26.5127L235.414 25.6309L235.405 25.6356L235.886 26.5127ZM233.22 28.9502L232.394 28.3862L232.391 28.3907L233.22 28.9502ZM231.725 26.5889V59H233.725V26.5889H231.725ZM232.725 58H221.756V60H232.725V58ZM222.756 59V17.791H220.756V59H222.756ZM221.756 18.791H232.039V16.791H221.756V18.791ZM231.042 17.8687L231.728 26.6666L233.722 26.5112L233.036 17.7133L231.042 17.8687ZM231.125 35.9482H228.154V37.9482H231.125V35.9482ZM229.154 36.9482C229.154 33.9865 229.537 31.3504 230.287 29.029L228.383 28.4144C227.559 30.9679 227.154 33.8162 227.154 36.9482H229.154ZM230.287 29.0261C231.042 26.6655 232.091 24.6878 233.42 23.0732L231.877 21.8018C230.362 23.6404 229.202 25.8521 228.382 28.4173L230.287 29.0261ZM233.425 23.0677C234.756 21.4276 236.326 20.1915 238.137 19.3444L237.29 17.5326C235.192 18.5136 233.385 19.9435 231.872 21.8073L233.425 23.0677ZM238.142 19.342C239.975 18.4729 242.035 18.0293 244.341 18.0293V16.0293C241.772 16.0293 239.414 16.5252 237.285 17.535L238.142 19.342ZM244.341 18.0293C246.174 18.0293 247.825 18.2944 249.305 18.8113L249.964 16.9231C248.245 16.3227 246.367 16.0293 244.341 16.0293V18.0293ZM249.305 18.8113C250.755 19.3175 251.988 20.1178 253.019 21.2171L254.478 19.8493C253.223 18.5111 251.714 17.5341 249.964 16.9231L249.305 18.8113ZM253.026 21.2251C254.062 22.3063 254.883 23.7696 255.457 25.6608L257.371 25.0794C256.727 22.9589 255.77 21.1976 254.47 19.8413L253.026 21.2251ZM255.461 25.6718C256.055 27.5512 256.366 29.893 256.366 32.7207H258.366C258.366 29.7594 258.042 27.2008 257.367 25.0684L255.461 25.6718ZM256.366 32.7207V59H258.366V32.7207H256.366ZM257.366 58H246.321V60H257.366V58ZM247.321 59V32.6826H245.321V59H247.321ZM247.321 32.6826C247.321 30.7835 247.061 29.1839 246.454 27.9698L244.665 28.8642C245.074 29.6814 245.321 30.9255 245.321 32.6826H247.321ZM246.454 27.9698C245.845 26.7521 244.92 25.863 243.692 25.359L242.933 27.2093C243.685 27.5179 244.258 28.0506 244.665 28.8642L246.454 27.9698ZM243.721 25.3714C242.591 24.866 241.249 24.6367 239.732 24.6367V26.6367C241.06 26.6367 242.104 26.839 242.904 27.197L243.721 25.3714ZM239.732 24.6367C238.126 24.6367 236.676 24.9559 235.414 25.6309L236.357 27.3945C237.279 26.9016 238.393 26.6367 239.732 26.6367V24.6367ZM235.405 25.6356C234.196 26.2981 233.19 27.22 232.394 28.3862L234.046 29.5142C234.671 28.5983 235.443 27.8953 236.366 27.3898L235.405 25.6356ZM232.391 28.3907C231.633 29.514 231.07 30.8151 230.69 32.2793L232.626 32.7812C232.958 31.5033 233.436 30.4177 234.049 29.5097L232.391 28.3907ZM230.69 32.2793C230.311 33.7409 230.125 35.2986 230.125 36.9482H232.125C232.125 35.4494 232.294 34.0618 232.626 32.7812L230.69 32.2793ZM297.882 49.1357H296.882V49.1685L296.884 49.2012L297.882 49.1357ZM297.882 17.791V16.791H296.882V17.791H297.882ZM308.851 17.791H309.851V16.791H308.851V17.791ZM308.851 59V60H309.851V59H308.851ZM298.529 59L297.532 59.0655L297.593 60H298.529V59ZM299.101 40.6807L299.077 39.6809L298.101 39.7039V40.6807H299.101ZM302.338 40.6045H303.338V39.5807L302.315 39.6048L302.338 40.6045ZM301.386 48.2598L302.351 48.522L302.352 48.5194L301.386 48.2598ZM298.529 54.3535L299.331 54.9516L299.335 54.9459L298.529 54.3535ZM293.731 58.3525L294.168 59.2517L294.178 59.247L293.731 58.3525ZM281.353 58.9238L281.024 59.8681L281.032 59.8711L281.041 59.8739L281.353 58.9238ZM277.011 56.2197L276.289 56.912L276.296 56.9195L276.304 56.9268L277.011 56.2197ZM274.193 51.459L273.245 51.7789L273.248 51.7863L273.25 51.7937L274.193 51.459ZM273.202 17.791V16.791H272.202V17.791H273.202ZM284.171 17.791H285.171V16.791H284.171V17.791ZM284.59 47.5742L283.641 47.8904L283.646 47.9033L283.65 47.916L284.59 47.5742ZM287.713 50.7734L287.407 51.7255L287.417 51.7285L287.713 50.7734ZM295.483 49.7451L294.913 48.9229L294.906 48.9281L295.483 49.7451ZM298.263 46.0127L297.319 45.683L297.316 45.6919L298.263 46.0127ZM298.882 49.1357V17.791H296.882V49.1357H298.882ZM297.882 18.791H308.851V16.791H297.882V18.791ZM307.851 17.791V59H309.851V17.791H307.851ZM308.851 58H298.529V60H308.851V58ZM299.527 58.9345L298.88 49.0702L296.884 49.2012L297.532 59.0655L299.527 58.9345ZM299.124 41.6804L302.362 41.6042L302.315 39.6048L299.077 39.6809L299.124 41.6804ZM301.338 40.6045C301.338 43.2695 301.03 45.733 300.42 48.0002L302.352 48.5194C303.012 46.0638 303.338 43.4239 303.338 40.6045H301.338ZM300.421 47.9975C299.814 50.2298 298.912 52.1459 297.724 53.7611L299.335 54.9459C300.687 53.108 301.688 50.9616 302.351 48.522L300.421 47.9975ZM297.728 53.7554C296.553 55.3294 295.076 56.5619 293.283 57.4581L294.178 59.247C296.245 58.2135 297.966 56.7799 299.331 54.9516L297.728 53.7554ZM293.293 57.4534C291.526 58.3136 289.409 58.7617 286.913 58.7617V60.7617C289.648 60.7617 292.076 60.2704 294.168 59.2516L293.293 57.4534ZM286.913 58.7617C285.001 58.7617 283.254 58.4956 281.665 57.9737L281.041 59.8739C282.854 60.4693 284.814 60.7617 286.913 60.7617V58.7617ZM281.682 57.9795C280.144 57.4436 278.827 56.6216 277.718 55.5126L276.304 56.9268C277.632 58.2553 279.21 59.2361 281.024 59.8681L281.682 57.9795ZM277.733 55.5275C276.654 54.4029 275.782 52.9452 275.135 51.1242L273.25 51.7937C273.974 53.8321 274.981 55.5482 276.289 56.912L277.733 55.5275ZM275.14 51.1391C274.524 49.3147 274.202 47.08 274.202 44.4131H272.202C272.202 47.2305 272.541 49.6932 273.245 51.7789L275.14 51.1391ZM274.202 44.4131V17.791H272.202V44.4131H274.202ZM273.202 18.791H284.171V16.791H273.202V18.791ZM283.171 17.791V44.4893H285.171V17.791H283.171ZM283.171 44.4893C283.171 45.7777 283.318 46.9201 283.641 47.8904L285.539 47.258C285.304 46.5526 285.171 45.6383 285.171 44.4893H283.171ZM283.65 47.916C283.996 48.8664 284.486 49.6843 285.14 50.338L286.554 48.9238C286.141 48.511 285.794 47.9578 285.53 47.2325L283.65 47.916ZM285.14 50.338C285.784 50.9824 286.543 51.4478 287.407 51.7255L288.019 49.8214C287.461 49.642 286.976 49.3458 286.554 48.9238L285.14 50.338ZM287.417 51.7285C288.262 51.9909 289.176 52.1162 290.151 52.1162V50.1162C289.347 50.1162 288.636 50.013 288.009 49.8184L287.417 51.7285ZM290.151 52.1162C292.532 52.1162 294.538 51.6362 296.059 50.5621L294.906 48.9281C293.838 49.6822 292.288 50.1162 290.151 50.1162V52.1162ZM296.052 50.5673C297.555 49.5265 298.611 48.1035 299.21 46.3335L297.316 45.6919C296.849 47.0704 296.051 48.1356 294.913 48.9229L296.052 50.5673ZM299.207 46.3424C299.808 44.6219 300.101 42.731 300.101 40.6807H298.101C298.101 42.5405 297.835 44.2043 297.319 45.683L299.207 46.3424ZM335.998 26.7793H336.998V26.7433L336.996 26.7074L335.998 26.7793ZM335.998 59V60H336.998V59H335.998ZM325.03 59H324.03V60H325.03V59ZM325.03 17.791V16.791H324.03V17.791H325.03ZM335.351 17.791L336.348 17.7192L336.282 16.791H335.351V17.791ZM348.414 17.5244L349.414 17.5431L349.428 16.8363L348.766 16.5881L348.414 17.5244ZM348.224 27.6934L348.083 28.6833L349.203 28.8433L349.224 27.7121L348.224 27.6934ZM346.282 27.5029L346.179 28.4976L346.197 28.4995L346.215 28.5007L346.282 27.5029ZM340.226 27.998L340.549 28.9446L340.561 28.9403L340.226 27.998ZM337.408 29.7119L336.701 29.0048L336.695 29.0108L336.689 29.0169L337.408 29.7119ZM335.732 32.4922L334.788 32.1628L334.784 32.1727L334.781 32.1826L335.732 32.4922ZM335.122 36.2246L334.826 37.1797L336.074 37.5671L336.122 36.2609L335.122 36.2246ZM332.913 35.5391H331.913V36.2758L332.617 36.4941L332.913 35.5391ZM333.713 28.1885L334.686 28.4206L334.687 28.4181L333.713 28.1885ZM336.037 22.2852L335.187 21.7574L335.181 21.7669L336.037 22.2852ZM346.853 17.1816L346.695 18.1691L346.714 18.1722L346.734 18.1745L346.853 17.1816ZM334.998 26.7793V59H336.998V26.7793H334.998ZM335.998 58H325.03V60H335.998V58ZM326.03 59V17.791H324.03V59H326.03ZM325.03 18.791H335.351V16.791H325.03V18.791ZM334.354 17.8629L335.001 26.8511L336.996 26.7074L336.348 17.7192L334.354 17.8629ZM347.415 17.5057L347.224 27.6746L349.224 27.7121L349.414 17.5431L347.415 17.5057ZM348.365 26.7034C347.8 26.6226 347.126 26.557 346.348 26.5051L346.215 28.5007C346.961 28.5505 347.582 28.6118 348.083 28.6833L348.365 26.7034ZM346.385 26.5082C345.621 26.4293 344.913 26.3887 344.263 26.3887V28.3887C344.832 28.3887 345.47 28.4243 346.179 28.4976L346.385 26.5082ZM344.263 26.3887C342.63 26.3887 341.166 26.6024 339.891 27.0558L340.561 28.9403C341.571 28.5812 342.798 28.3887 344.263 28.3887V26.3887ZM339.903 27.0515C338.655 27.477 337.58 28.1249 336.701 29.0048L338.115 30.419C338.758 29.7755 339.562 29.2809 340.549 28.9446L339.903 27.0515ZM336.689 29.0169C335.843 29.892 335.212 30.9469 334.788 32.1628L336.676 32.8216C337.014 31.8539 337.5 31.0553 338.127 30.4069L336.689 29.0169ZM334.781 32.1826C334.391 33.3795 334.177 34.7182 334.123 36.1883L336.122 36.2609C336.17 34.938 336.361 33.7885 336.683 32.8018L334.781 32.1826ZM335.419 35.2695L333.21 34.584L332.617 36.4941L334.826 37.1797L335.419 35.2695ZM333.913 35.5391C333.913 32.939 334.174 30.5679 334.686 28.4206L332.741 27.9564C332.187 30.2778 331.913 32.807 331.913 35.5391H333.913ZM334.687 28.4181C335.2 26.2419 335.939 24.375 336.892 22.8035L335.181 21.7669C334.103 23.5469 333.293 25.6156 332.74 27.9588L334.687 28.4181ZM336.886 22.8128C337.855 21.2532 339.017 20.077 340.366 19.254L339.324 17.5468C337.677 18.5519 336.3 19.9655 335.187 21.7575L336.886 22.8128ZM340.366 19.254C341.692 18.4451 343.222 18.0293 344.987 18.0293V16.0293C342.892 16.0293 340.995 16.5276 339.324 17.5468L340.366 19.254ZM344.987 18.0293C345.54 18.0293 346.11 18.0754 346.695 18.1691L347.011 16.1942C346.327 16.0847 345.652 16.0293 344.987 16.0293V18.0293ZM346.734 18.1745C347.323 18.2452 347.758 18.3463 348.063 18.4607L348.766 16.5881C348.258 16.3979 347.653 16.2704 346.972 16.1888L346.734 18.1745ZM381.694 27.96L380.781 28.3683L380.785 28.3775L381.694 27.96ZM379.675 25.7129L379.161 26.5704L379.172 26.5767L379.675 25.7129ZM373.048 25.5605L373.464 26.47L373.475 26.4652L373.485 26.4601L373.048 25.5605ZM370.992 27.3506L371.837 27.8856L371.841 27.8794L371.844 27.8731L370.992 27.3506ZM370.268 30.0547V31.0547H371.268V30.0547H370.268ZM359.299 30.0547H358.299V31.0547H359.299V30.0547ZM364.06 20.9141L364.671 21.7062L364.679 21.6999L364.06 20.9141ZM369.583 18.0576L369.28 17.1045L369.277 17.1056L369.583 18.0576ZM391.215 23.4277L390.383 23.9825L390.388 23.9892L391.215 23.4277ZM393.805 54.6201L392.823 54.8096L392.824 54.8129L393.805 54.6201ZM395.024 58.3525H396.024V58.1165L395.918 57.9053L395.024 58.3525ZM395.024 59V60H396.024V59H395.024ZM383.941 59L383.039 59.4307L383.31 60H383.941V59ZM382.722 54.8105L381.733 54.9582L381.734 54.9666L381.736 54.9749L382.722 54.8105ZM383.789 33.9014L384.789 33.8891L384.776 32.9014H383.789V33.9014ZM383.865 40.1094V41.1094H384.877L384.865 40.0971L383.865 40.1094ZM371.335 42.0137L371.983 42.7749L371.991 42.7681L371.999 42.7611L371.335 42.0137ZM369.811 44.0703L368.889 43.6836L368.884 43.6964L368.879 43.7093L369.811 44.0703ZM370.002 49.2119L369.132 49.7049L369.135 49.7113L369.139 49.7176L370.002 49.2119ZM371.868 50.9639L371.399 51.847L371.41 51.8528L371.421 51.8583L371.868 50.9639ZM381.846 48.1455L381.031 47.5663L381.026 47.5735L381.021 47.5808L381.846 48.1455ZM382.913 45.4033L383.761 44.8746L382.01 42.0638L381.913 45.3739L382.913 45.4033ZM385.807 50.0498L386.739 50.4133L386.921 49.9465L386.656 49.5211L385.807 50.0498ZM384.131 53.2871L383.288 52.7502L383.283 52.7571L383.279 52.7641L384.131 53.2871ZM381.504 56.4482L382.174 57.1898L382.184 57.181L381.504 56.4482ZM377.657 58.8477L378.034 59.774L378.04 59.7712L378.047 59.7684L377.657 58.8477ZM365.203 58.2002L364.751 59.0925L364.758 59.0957L364.764 59.0989L365.203 58.2002ZM360.175 53.8203L359.336 54.3645L359.341 54.3711L359.345 54.3776L360.175 53.8203ZM363.146 37.4434L363.733 38.2527L363.736 38.251L363.146 37.4434ZM369.126 34.8154L369.363 35.7868L369.373 35.7843L369.126 34.8154ZM383.341 49.707V31.3496H381.341V49.707H383.341ZM383.341 31.3496C383.341 29.9237 383.109 28.6439 382.603 27.5425L380.785 28.3775C381.142 29.155 381.341 30.1349 381.341 31.3496H383.341ZM382.607 27.5516C382.09 26.3957 381.274 25.4875 380.179 24.8491L379.172 26.5767C379.905 27.0047 380.435 27.5945 380.781 28.3683L382.607 27.5516ZM380.19 24.8554C379.098 24.2005 377.748 23.9131 376.21 23.9131V25.9131C377.515 25.9131 378.475 26.1589 379.161 26.5704L380.19 24.8554ZM376.21 23.9131C374.874 23.9131 373.664 24.1496 372.612 24.661L373.485 26.4601C374.21 26.1082 375.108 25.9131 376.21 25.9131V23.9131ZM372.633 24.6511C371.574 25.1349 370.732 25.8612 370.139 26.828L371.844 27.8731C372.217 27.2657 372.745 26.7987 373.464 26.47L372.633 24.6511ZM370.147 26.8155C369.548 27.7608 369.268 28.8541 369.268 30.0547H371.268C371.268 29.1732 371.47 28.4638 371.837 27.8856L370.147 26.8155ZM370.268 29.0547H359.299V31.0547H370.268V29.0547ZM360.299 30.0547C360.299 28.4642 360.667 26.9581 361.407 25.5241L359.63 24.6068C358.745 26.3212 358.299 28.1413 358.299 30.0547H360.299ZM361.407 25.5241C362.145 24.093 363.226 22.8195 364.67 21.7062L363.45 20.1219C361.797 21.3953 360.516 22.8894 359.63 24.6068L361.407 25.5241ZM364.679 21.6999C366.122 20.564 367.854 19.6637 369.889 19.0096L369.277 17.1056C367.046 17.8226 365.096 18.8266 363.442 20.1282L364.679 21.6999ZM369.885 19.0107C371.93 18.3612 374.238 18.0293 376.819 18.0293V16.0293C374.068 16.0293 371.552 16.383 369.28 17.1045L369.885 19.0107ZM376.819 18.0293C379.907 18.0293 382.613 18.5438 384.956 19.5481L385.744 17.7098C383.111 16.5812 380.129 16.0293 376.819 16.0293V18.0293ZM384.956 19.5481C387.277 20.5425 389.075 22.0203 390.383 23.9824L392.047 22.873C390.512 20.5696 388.4 18.8481 385.744 17.7098L384.956 19.5481ZM390.388 23.9892C391.698 25.9203 392.386 28.3782 392.386 31.4258H394.386C394.386 28.0749 393.627 25.2008 392.043 22.8662L390.388 23.9892ZM392.386 31.4258V49.0596H394.386V31.4258H392.386ZM392.386 49.0596C392.386 51.3531 392.527 53.2762 392.823 54.8096L394.787 54.4306C394.524 53.0695 394.386 51.2855 394.386 49.0596H392.386ZM392.824 54.8129C393.117 56.3048 393.549 57.6377 394.13 58.7998L395.918 57.9053C395.433 56.9345 395.052 55.7792 394.787 54.4274L392.824 54.8129ZM394.024 58.3525V59H396.024V58.3525H394.024ZM395.024 58H383.941V60H395.024V58ZM384.843 58.5693C384.362 57.5613 383.978 56.2614 383.709 54.6461L381.736 54.9749C382.025 56.7113 382.453 58.2043 383.039 59.4307L384.843 58.5693ZM383.711 54.6629C383.465 53.0101 383.341 51.3582 383.341 49.707H381.341C381.341 51.4582 381.472 53.2087 381.733 54.9582L383.711 54.6629ZM382.789 33.9136L382.865 40.1216L384.865 40.0971L384.789 33.8891L382.789 33.9136ZM383.865 39.1094H377.733V41.1094H383.865V39.1094ZM377.733 39.1094C376.214 39.1094 374.852 39.2822 373.667 39.6492L374.258 41.5598C375.205 41.2666 376.358 41.1094 377.733 41.1094V39.1094ZM373.667 39.6492C372.493 40.0125 371.483 40.5438 370.67 41.2663L371.999 42.7611C372.557 42.2648 373.299 41.8566 374.258 41.5598L373.667 39.6492ZM370.686 41.2524C369.888 41.9323 369.283 42.7439 368.889 43.6836L370.733 44.457C370.999 43.8225 371.41 43.263 371.983 42.7749L370.686 41.2524ZM368.879 43.7093C368.525 44.6239 368.354 45.6112 368.354 46.6602H370.354C370.354 45.8302 370.488 45.091 370.744 44.4313L368.879 43.7093ZM368.354 46.6602C368.354 47.7594 368.608 48.7819 369.132 49.7049L370.872 48.7189C370.531 48.1185 370.354 47.4398 370.354 46.6602H368.354ZM369.139 49.7176C369.671 50.6263 370.436 51.3355 371.399 51.847L372.337 50.0808C371.675 49.729 371.195 49.2702 370.864 48.7062L369.139 49.7176ZM371.421 51.8583C372.397 52.3466 373.508 52.5732 374.724 52.5732V50.5732C373.757 50.5732 372.963 50.3936 372.315 50.0694L371.421 51.8583ZM374.724 52.5732C376.509 52.5732 378.114 52.2155 379.504 51.4623L378.552 49.7037C377.505 50.2708 376.24 50.5732 374.724 50.5732V52.5732ZM379.504 51.4623C380.837 50.7405 381.907 49.8284 382.672 48.7102L381.021 47.5808C380.466 48.3923 379.657 49.1052 378.552 49.7037L379.504 51.4623ZM382.661 48.7247C383.42 47.6567 383.879 46.5542 383.912 45.4327L381.913 45.3739C381.895 45.979 381.643 46.7046 381.031 47.5663L382.661 48.7247ZM382.064 45.9321L384.958 50.5786L386.656 49.5211L383.761 44.8746L382.064 45.9321ZM384.876 49.6863C384.497 50.6569 383.97 51.6781 383.288 52.7502L384.975 53.824C385.715 52.6618 386.305 51.5247 386.739 50.4133L384.876 49.6863ZM383.279 52.7641C382.646 53.7959 381.83 54.7803 380.823 55.7154L382.184 57.181C383.31 56.1357 384.246 55.0127 384.984 53.8101L383.279 52.7641ZM380.833 55.7067C379.859 56.5874 378.675 57.3301 377.267 57.9269L378.047 59.7684C379.635 59.0957 381.015 58.2388 382.174 57.1898L380.833 55.7067ZM377.28 57.9214C375.929 58.4708 374.286 58.7617 372.325 58.7617V60.7617C374.477 60.7617 376.388 60.4433 378.034 59.774L377.28 57.9214ZM372.325 58.7617C369.846 58.7617 367.624 58.2693 365.641 57.3015L364.764 59.0989C367.047 60.2131 369.573 60.7617 372.325 60.7617V58.7617ZM365.654 57.3079C363.69 56.3142 362.149 54.9659 361.006 53.263L359.345 54.3776C360.69 56.3817 362.5 57.9533 364.751 59.0925L365.654 57.3079ZM361.014 53.2761C359.908 51.5701 359.347 49.6287 359.347 47.4219H357.347C357.347 49.9884 358.006 52.3128 359.336 54.3645L361.014 53.2761ZM359.347 47.4219C359.347 45.3908 359.729 43.6269 360.466 42.1072L358.666 41.2346C357.778 43.0664 357.347 45.1365 357.347 47.4219H359.347ZM360.466 42.1072C361.203 40.5862 362.286 39.303 363.733 38.2527L362.559 36.6341C360.857 37.8689 359.554 39.404 358.666 41.2346L360.466 42.1072ZM363.736 38.251C365.208 37.1762 367.074 36.3469 369.363 35.7868L368.888 33.8441C366.404 34.4519 364.284 35.3746 362.556 36.6357L363.736 38.251ZM369.373 35.7843C371.66 35.2004 374.341 34.9014 377.428 34.9014V32.9014C374.218 32.9014 371.365 33.2117 368.878 33.8465L369.373 35.7843ZM377.428 34.9014H383.789V32.9014H377.428V34.9014ZM41.6398 130.233H40.6398V131.233H41.6398V130.233ZM41.6398 121.321V120.321H40.6398V121.321H41.6398ZM61.1018 120.255L61.5621 121.143L61.5685 121.139L61.5749 121.136L61.1018 120.255ZM45.6008 103.497V102.497H44.6008V103.497H45.6008ZM45.6008 150V151H46.6008V150H45.6008ZM34.175 150H33.175V151H34.175V150ZM34.175 94.5469V93.5469H33.175V94.5469H34.175ZM66.9289 96.9082L66.4758 97.7997L66.4846 97.8041L66.9289 96.9082ZM66.9289 128.101L66.5145 127.19L66.5117 127.192L66.9289 128.101ZM55.7697 129.233H41.6398V131.233H55.7697V129.233ZM42.6398 130.233V121.321H40.6398V130.233H42.6398ZM41.6398 122.321H55.7697V120.321H41.6398V122.321ZM55.7697 122.321C58.0513 122.321 60.0022 121.951 61.5621 121.143L60.6414 119.367C59.4591 119.98 57.8553 120.321 55.7697 120.321V122.321ZM61.5749 121.136C63.1148 120.309 64.2743 119.146 65.0085 117.648L63.2126 116.768C62.6773 117.86 61.8309 118.728 60.6286 119.374L61.5749 121.136ZM65.0085 117.648C65.7185 116.2 66.0627 114.586 66.0627 112.828H64.0627C64.0627 114.32 63.7721 115.626 63.2126 116.768L65.0085 117.648ZM66.0627 112.828C66.0627 111.046 65.7191 109.37 65.0237 107.812L63.1974 108.627C63.7715 109.913 64.0627 111.31 64.0627 112.828H66.0627ZM65.0237 107.812C64.3049 106.202 63.1658 104.91 61.6346 103.946L60.5689 105.638C61.7799 106.401 62.6466 107.394 63.1974 108.627L65.0237 107.812ZM61.6346 103.946C60.0575 102.953 58.0782 102.497 55.7697 102.497V104.497C57.8284 104.497 59.4038 104.905 60.5689 105.638L61.6346 103.946ZM55.7697 102.497H45.6008V104.497H55.7697V102.497ZM44.6008 103.497V150H46.6008V103.497H44.6008ZM45.6008 149H34.175V151H45.6008V149ZM35.175 150V94.5469H33.175V150H35.175ZM34.175 95.5469H55.7697V93.5469H34.175V95.5469ZM55.7697 95.5469C59.9925 95.5469 63.5492 96.3124 66.4759 97.7997L67.382 96.0167C64.1133 94.3556 60.2305 93.5469 55.7697 93.5469V95.5469ZM66.4846 97.8041C69.4526 99.276 71.689 101.296 73.2323 103.86L74.9459 102.829C73.1883 99.9088 70.6514 97.6381 67.3732 96.0123L66.4846 97.8041ZM73.2323 103.86C74.7795 106.431 75.5646 109.385 75.5646 112.752H77.5646C77.5646 109.06 76.6994 105.743 74.9459 102.829L73.2323 103.86ZM75.5646 112.752C75.5646 116.174 74.7779 119.08 73.2434 121.511L74.9347 122.579C76.701 119.78 77.5646 116.491 77.5646 112.752H75.5646ZM73.2434 121.511C71.7082 123.944 69.4804 125.84 66.5145 127.19L67.3433 129.011C70.6235 127.517 73.1691 125.376 74.9347 122.579L73.2434 121.511ZM66.5117 127.192C63.5756 128.539 60.0056 129.233 55.7697 129.233V131.233C60.2174 131.233 64.0869 130.505 67.3461 129.009L66.5117 127.192ZM103.141 108.791H104.141V107.791H103.141V108.791ZM103.141 150V151H104.141V150H103.141ZM92.1342 150H91.1342V151H92.1342V150ZM92.1342 108.791V107.791H91.1342V108.791H92.1342ZM102.075 94.0898L101.393 94.8215L101.401 94.829L102.075 94.0898ZM102.075 102.012L101.401 101.272L101.393 101.28L102.075 102.012ZM102.141 108.791V150H104.141V108.791H102.141ZM103.141 149H92.1342V151H103.141V149ZM93.1342 150V108.791H91.1342V150H93.1342ZM92.1342 109.791H103.141V107.791H92.1342V109.791ZM92.4486 98.0508C92.4486 96.7138 92.9026 95.6634 93.8061 94.8215L92.4427 93.3582C91.1119 94.5983 90.4486 96.1886 90.4486 98.0508H92.4486ZM93.8061 94.8215C94.6978 93.9906 95.9314 93.5283 97.6186 93.5283V91.5283C95.5479 91.5283 93.7854 92.1071 92.4427 93.3582L93.8061 94.8215ZM97.6186 93.5283C99.2761 93.5283 100.499 93.9882 101.393 94.8215L102.756 93.3582C101.416 92.1094 99.668 91.5283 97.6186 91.5283V93.5283ZM101.401 94.829C102.328 95.6732 102.788 96.7214 102.788 98.0508H104.788C104.788 96.1809 104.107 94.5885 102.748 93.3506L101.401 94.829ZM102.788 98.0508C102.788 99.3802 102.328 100.428 101.401 101.273L102.748 102.751C104.107 101.513 104.788 99.9206 104.788 98.0508H102.788ZM101.393 101.28C100.499 102.113 99.2761 102.573 97.6186 102.573V104.573C99.668 104.573 101.416 103.992 102.756 102.743L101.393 101.28ZM97.6186 102.573C95.9314 102.573 94.6978 102.111 93.8061 101.28L92.4427 102.743C93.7854 103.994 95.5479 104.573 97.6186 104.573V102.573ZM93.8061 101.28C92.9026 100.438 92.4486 99.3878 92.4486 98.0508H90.4486C90.4486 99.913 91.1119 101.503 92.4427 102.743L93.8061 101.28ZM139.048 134.728L138.632 135.637L138.643 135.642L138.655 135.647L139.048 134.728ZM133.754 133.204L133.54 134.181L133.55 134.183L133.56 134.185L133.754 133.204ZM127.927 131.49L127.556 132.419L127.564 132.422L127.572 132.425L127.927 131.49ZM123.281 128.938L122.673 129.733L122.681 129.738L123.281 128.938ZM120.234 125.435L119.353 125.908L119.357 125.915L120.234 125.435ZM120.234 115.875L119.339 115.428L119.334 115.44L120.234 115.875ZM123.471 111.838L124.113 112.605L124.114 112.604L123.471 111.838ZM128.651 109.058L128.96 110.009L128.967 110.006L128.651 109.058ZM144.799 109.743L144.392 110.657L144.396 110.658L144.799 109.743ZM150.741 114.466L149.915 115.03L149.919 115.036L149.924 115.042L150.741 114.466ZM152.836 121.245V122.245H153.836V121.245H152.836ZM141.867 121.245H140.867V122.245H141.867V121.245ZM141.181 118.389L140.287 118.836L140.295 118.852L140.303 118.868L141.181 118.389ZM139.125 116.37L138.639 117.244L138.653 117.252L138.668 117.26L139.125 116.37ZM132.383 116.256L132.799 117.165L132.81 117.16L132.82 117.155L132.383 116.256ZM130.327 117.932L129.499 117.37L129.495 117.377L130.327 117.932ZM130.022 121.931L129.128 122.378L129.141 122.405L129.157 122.432L130.022 121.931ZM133.716 124.406L133.371 125.345L133.385 125.35L133.4 125.355L133.716 124.406ZM137.373 125.32L137.574 124.341L137.562 124.338L137.373 125.32ZM145.333 127.72L144.942 128.64L144.951 128.644L145.333 127.72ZM150.893 131.681L150.119 132.314L150.124 132.32L150.893 131.681ZM148.227 147.22L148.819 148.026L148.827 148.02L148.227 147.22ZM142.743 149.848L143.021 150.808L143.028 150.806L142.743 149.848ZM125.871 148.705L125.41 149.593L125.413 149.594L125.871 148.705ZM119.853 143.487L119.007 144.021L119.015 144.033L119.853 143.487ZM117.835 136.937V135.937H116.835V136.937H117.835ZM128.232 136.937L129.231 136.903L129.199 135.937H128.232V136.937ZM129.375 140.555L128.585 141.169L128.591 141.175L128.596 141.182L129.375 140.555ZM132.155 142.535L131.813 143.475L131.82 143.477L132.155 142.535ZM139.391 142.573L139.767 143.5L139.778 143.496L139.788 143.491L139.391 142.573ZM141.524 140.974L140.72 140.378L140.717 140.384L141.524 140.974ZM143.286 138.612C143.286 137.617 142.992 136.701 142.412 135.895L140.789 137.064C141.122 137.527 141.286 138.033 141.286 138.612H143.286ZM142.412 135.895C141.797 135.041 140.747 134.367 139.442 133.808L138.655 135.647C139.838 136.154 140.49 136.649 140.789 137.064L142.412 135.895ZM139.465 133.818C138.141 133.212 136.287 132.686 133.949 132.223L133.56 134.185C135.843 134.637 137.518 135.126 138.632 135.637L139.465 133.818ZM133.969 132.227C131.93 131.78 130.035 131.222 128.283 130.556L127.572 132.425C129.425 133.13 131.415 133.714 133.54 134.181L133.969 132.227ZM128.299 130.562C126.59 129.878 125.121 129.068 123.881 128.138L122.681 129.738C124.082 130.789 125.71 131.68 127.556 132.419L128.299 130.562ZM123.888 128.144C122.697 127.233 121.776 126.17 121.111 124.955L119.357 125.915C120.164 127.39 121.275 128.663 122.673 129.733L123.888 128.144ZM121.115 124.961C120.466 123.753 120.129 122.358 120.129 120.75H118.129C118.129 122.646 118.529 124.374 119.353 125.908L121.115 124.961ZM120.129 120.75C120.129 119.171 120.465 117.695 121.134 116.31L119.334 115.44C118.53 117.102 118.129 118.876 118.129 120.75H120.129ZM121.128 116.322C121.825 114.93 122.814 113.691 124.113 112.605L122.83 111.071C121.335 112.321 120.167 113.773 119.34 115.428L121.128 116.322ZM124.114 112.604C125.424 111.505 127.033 110.635 128.96 110.009L128.342 108.107C126.207 108.801 124.362 109.785 122.828 111.072L124.114 112.604ZM128.967 110.006C130.905 109.36 133.107 109.029 135.583 109.029V107.029C132.93 107.029 130.51 107.384 128.335 108.109L128.967 110.006ZM135.583 109.029C139.06 109.029 141.986 109.584 144.392 110.657L145.206 108.83C142.484 107.617 139.266 107.029 135.583 107.029V109.029ZM144.396 110.658C146.844 111.738 148.666 113.202 149.915 115.03L151.566 113.902C150.074 111.718 147.935 110.033 145.203 108.828L144.396 110.658ZM149.924 115.042C151.195 116.846 151.836 118.902 151.836 121.245H153.836C153.836 118.51 153.079 116.047 151.558 113.89L149.924 115.042ZM152.836 120.245H141.867V122.245H152.836V120.245ZM142.867 121.245C142.867 120.031 142.605 118.911 142.059 117.91L140.303 118.868C140.671 119.542 140.867 120.326 140.867 121.245H142.867ZM142.076 117.941C141.54 116.87 140.691 116.05 139.581 115.481L138.668 117.26C139.437 117.655 139.959 118.181 140.287 118.836L142.076 117.941ZM139.61 115.496C138.499 114.879 137.122 114.608 135.545 114.608V116.608C136.913 116.608 137.922 116.846 138.639 117.244L139.61 115.496ZM135.545 114.608C134.209 114.608 132.999 114.845 131.946 115.356L132.82 117.155C133.545 116.803 134.443 116.608 135.545 116.608V114.608ZM131.968 115.346C130.936 115.818 130.098 116.488 129.499 117.37L131.154 118.493C131.52 117.954 132.054 117.506 132.799 117.165L131.968 115.346ZM129.495 117.377C128.926 118.23 128.641 119.185 128.641 120.217H130.641C130.641 119.573 130.813 119.005 131.159 118.486L129.495 117.377ZM128.641 120.217C128.641 120.988 128.796 121.716 129.128 122.378L130.916 121.483C130.74 121.13 130.641 120.715 130.641 120.217H128.641ZM129.157 122.432C129.533 123.082 130.102 123.63 130.8 124.096L131.91 122.432C131.39 122.085 131.07 121.744 130.887 121.43L129.157 122.432ZM130.8 124.096C131.495 124.559 132.359 124.972 133.371 125.345L134.062 123.468C133.144 123.13 132.434 122.781 131.91 122.432L130.8 124.096ZM133.4 125.355C134.445 125.703 135.709 126.018 137.183 126.302L137.562 124.338C136.142 124.064 134.968 123.769 134.033 123.458L133.4 125.355ZM137.172 126.3C140.09 126.898 142.678 127.68 144.942 128.64L145.723 126.799C143.316 125.779 140.597 124.961 137.574 124.341L137.172 126.3ZM144.951 128.644C147.16 129.556 148.869 130.786 150.119 132.314L151.667 131.047C150.175 129.224 148.177 127.813 145.714 126.795L144.951 128.644ZM150.124 132.32C151.311 133.749 151.95 135.674 151.95 138.193H153.95C153.95 135.33 153.217 132.913 151.662 131.042L150.124 132.32ZM151.95 138.193C151.95 139.867 151.579 141.38 150.849 142.75L152.613 143.691C153.508 142.014 153.95 140.176 153.95 138.193H151.95ZM150.849 142.75C150.112 144.132 149.046 145.356 147.627 146.42L148.827 148.02C150.456 146.798 151.725 145.357 152.613 143.691L150.849 142.75ZM147.636 146.413C146.22 147.452 144.499 148.281 142.458 148.889L143.028 150.806C145.252 150.144 147.188 149.222 148.819 148.026L147.636 146.413ZM142.465 148.887C140.464 149.466 138.186 149.762 135.621 149.762V151.762C138.337 151.762 140.807 151.448 143.021 150.808L142.465 148.887ZM135.621 149.762C131.903 149.762 128.819 149.097 126.328 147.816L125.413 149.594C128.255 151.056 131.671 151.762 135.621 151.762V149.762ZM126.332 147.818C123.816 146.511 121.952 144.88 120.691 142.942L119.015 144.033C120.496 146.309 122.644 148.157 125.41 149.593L126.332 147.818ZM120.699 142.954C119.441 140.959 118.835 138.959 118.835 136.937H116.835C116.835 139.383 117.574 141.75 119.007 144.021L120.699 142.954ZM117.835 137.937H128.232V135.937H117.835V137.937ZM127.233 136.97C127.288 138.617 127.711 140.045 128.585 141.169L130.164 139.941C129.616 139.236 129.277 138.252 129.231 136.903L127.233 136.97ZM128.596 141.182C129.448 142.24 130.527 143.007 131.813 143.475L132.497 141.595C131.549 141.251 130.774 140.697 130.153 139.927L128.596 141.182ZM131.82 143.477C133.079 143.925 134.425 144.145 135.849 144.145V142.145C134.633 142.145 133.516 141.958 132.49 141.593L131.82 143.477ZM135.849 144.145C137.352 144.145 138.67 143.944 139.767 143.5L139.016 141.647C138.233 141.964 137.19 142.145 135.849 142.145V144.145ZM139.788 143.491C140.85 143.032 141.72 142.4 142.331 141.564L140.717 140.384C140.363 140.868 139.811 141.302 138.994 141.655L139.788 143.491ZM142.328 141.569C142.969 140.704 143.286 139.706 143.286 138.612H141.286C141.286 139.296 141.095 139.873 140.72 140.378L142.328 141.569ZM189.467 118.96L188.554 119.368L188.558 119.377L189.467 118.96ZM187.448 116.713L186.934 117.57L186.944 117.577L187.448 116.713ZM180.821 116.561L181.237 117.47L181.247 117.465L181.258 117.46L180.821 116.561ZM178.764 118.351L179.609 118.886L179.613 118.879L179.617 118.873L178.764 118.351ZM178.041 121.055V122.055H179.041V121.055H178.041ZM167.072 121.055H166.072V122.055H167.072V121.055ZM171.833 111.914L172.443 112.706L172.451 112.7L171.833 111.914ZM177.355 109.058L177.053 108.105L177.049 108.106L177.355 109.058ZM198.988 114.428L198.156 114.982L198.161 114.989L198.988 114.428ZM201.578 145.62L200.596 145.81L200.597 145.813L201.578 145.62ZM202.797 149.353H203.797V149.116L203.691 148.905L202.797 149.353ZM202.797 150V151H203.797V150H202.797ZM191.714 150L190.811 150.431L191.083 151H191.714V150ZM190.495 145.811L189.506 145.958L189.507 145.967L189.509 145.975L190.495 145.811ZM191.561 124.901L192.561 124.889L192.549 123.901H191.561V124.901ZM191.637 131.109V132.109H192.65L192.637 131.097L191.637 131.109ZM179.107 133.014L179.756 133.775L179.764 133.768L179.772 133.761L179.107 133.014ZM177.584 135.07L176.662 134.684L176.656 134.696L176.651 134.709L177.584 135.07ZM177.774 140.212L176.904 140.705L176.908 140.711L176.912 140.718L177.774 140.212ZM179.64 141.964L179.171 142.847L179.182 142.853L179.193 142.858L179.64 141.964ZM189.619 139.146L188.804 138.566L188.799 138.574L188.794 138.581L189.619 139.146ZM190.685 136.403L191.534 135.875L189.783 133.064L189.686 136.374L190.685 136.403ZM193.58 141.05L194.511 141.413L194.694 140.946L194.429 140.521L193.58 141.05ZM191.904 144.287L191.06 143.75L191.056 143.757L191.052 143.764L191.904 144.287ZM189.276 147.448L189.947 148.19L189.957 148.181L189.276 147.448ZM185.429 149.848L185.806 150.774L185.813 150.771L185.82 150.768L185.429 149.848ZM172.975 149.2L172.524 150.092L172.53 150.096L172.537 150.099L172.975 149.2ZM167.948 144.82L167.109 145.365L167.113 145.371L167.118 145.378L167.948 144.82ZM170.919 128.443L171.506 129.253L171.508 129.251L170.919 128.443ZM176.898 125.815L177.136 126.787L177.146 126.784L176.898 125.815ZM191.114 140.707V122.35H189.114V140.707H191.114ZM191.114 122.35C191.114 120.924 190.881 119.644 190.375 118.542L188.558 119.377C188.915 120.155 189.114 121.135 189.114 122.35H191.114ZM190.379 118.552C189.862 117.396 189.046 116.488 187.952 115.849L186.944 117.577C187.678 118.005 188.208 118.595 188.554 119.368L190.379 118.552ZM187.963 115.855C186.871 115.2 185.521 114.913 183.982 114.913V116.913C185.288 116.913 186.248 117.159 186.934 117.57L187.963 115.855ZM183.982 114.913C182.647 114.913 181.437 115.15 180.384 115.661L181.258 117.46C181.982 117.108 182.88 116.913 183.982 116.913V114.913ZM180.405 115.651C179.347 116.135 178.504 116.861 177.912 117.828L179.617 118.873C179.989 118.266 180.518 117.799 181.237 117.47L180.405 115.651ZM177.92 117.816C177.321 118.761 177.041 119.854 177.041 121.055H179.041C179.041 120.173 179.243 119.464 179.609 118.886L177.92 117.816ZM178.041 120.055H167.072V122.055H178.041V120.055ZM168.072 121.055C168.072 119.464 168.439 117.958 169.179 116.524L167.402 115.607C166.517 117.321 166.072 119.141 166.072 121.055H168.072ZM169.179 116.524C169.918 115.093 170.998 113.819 172.443 112.706L171.222 111.122C169.57 112.395 168.289 113.889 167.402 115.607L169.179 116.524ZM172.451 112.7C173.895 111.564 175.626 110.664 177.661 110.01L177.049 108.106C174.819 108.823 172.869 109.827 171.214 111.128L172.451 112.7ZM177.658 110.011C179.703 109.361 182.011 109.029 184.592 109.029V107.029C181.841 107.029 179.324 107.383 177.053 108.105L177.658 110.011ZM184.592 109.029C187.68 109.029 190.386 109.544 192.729 110.548L193.517 108.71C190.884 107.581 187.902 107.029 184.592 107.029V109.029ZM192.729 110.548C195.049 111.543 196.848 113.02 198.156 114.982L199.82 113.873C198.284 111.57 196.173 109.848 193.517 108.71L192.729 110.548ZM198.161 114.989C199.471 116.92 200.159 119.378 200.159 122.426H202.159C202.159 119.075 201.4 116.201 199.816 113.866L198.161 114.989ZM200.159 122.426V140.06H202.159V122.426H200.159ZM200.159 140.06C200.159 142.353 200.3 144.276 200.596 145.81L202.56 145.431C202.297 144.069 202.159 142.286 202.159 140.06H200.159ZM200.597 145.813C200.89 147.305 201.321 148.638 201.902 149.8L203.691 148.905C203.206 147.935 202.825 146.779 202.559 145.427L200.597 145.813ZM201.797 149.353V150H203.797V149.353H201.797ZM202.797 149H191.714V151H202.797V149ZM192.616 149.569C192.135 148.561 191.751 147.261 191.481 145.646L189.509 145.975C189.798 147.711 190.226 149.204 190.811 150.431L192.616 149.569ZM191.484 145.663C191.237 144.01 191.114 142.358 191.114 140.707H189.114C189.114 142.458 189.245 144.209 189.506 145.958L191.484 145.663ZM190.561 124.914L190.638 131.122L192.637 131.097L192.561 124.889L190.561 124.914ZM191.637 130.109H185.506V132.109H191.637V130.109ZM185.506 130.109C183.986 130.109 182.625 130.282 181.439 130.649L182.031 132.56C182.978 132.267 184.131 132.109 185.506 132.109V130.109ZM181.439 130.649C180.266 131.013 179.256 131.544 178.443 132.266L179.772 133.761C180.33 133.265 181.072 132.857 182.031 132.56L181.439 130.649ZM178.459 132.252C177.661 132.932 177.056 133.744 176.662 134.684L178.506 135.457C178.772 134.822 179.183 134.263 179.756 133.775L178.459 132.252ZM176.651 134.709C176.297 135.624 176.127 136.611 176.127 137.66H178.127C178.127 136.83 178.261 136.091 178.516 135.431L176.651 134.709ZM176.127 137.66C176.127 138.759 176.381 139.782 176.904 140.705L178.644 139.719C178.304 139.118 178.127 138.44 178.127 137.66H176.127ZM176.912 140.718C177.444 141.626 178.208 142.335 179.171 142.847L180.11 141.081C179.447 140.729 178.968 140.27 178.637 139.706L176.912 140.718ZM179.193 142.858C180.17 143.347 181.281 143.573 182.497 143.573V141.573C181.529 141.573 180.736 141.394 180.088 141.069L179.193 142.858ZM182.497 143.573C184.282 143.573 185.886 143.215 187.277 142.462L186.324 140.704C185.277 141.271 184.013 141.573 182.497 141.573V143.573ZM187.277 142.462C188.609 141.74 189.679 140.828 190.444 139.71L188.794 138.581C188.238 139.392 187.429 140.105 186.324 140.704L187.277 142.462ZM190.434 139.725C191.193 138.657 191.652 137.554 191.685 136.433L189.686 136.374C189.668 136.979 189.416 137.705 188.804 138.566L190.434 139.725ZM189.837 136.932L192.731 141.579L194.429 140.521L191.534 135.875L189.837 136.932ZM192.648 140.686C192.27 141.657 191.743 142.678 191.06 143.75L192.748 144.824C193.487 143.662 194.078 142.525 194.511 141.413L192.648 140.686ZM191.052 143.764C190.419 144.796 189.603 145.78 188.596 146.715L189.957 148.181C191.082 147.136 192.018 146.013 192.756 144.81L191.052 143.764ZM188.605 146.707C187.632 147.587 186.448 148.33 185.039 148.927L185.82 150.768C187.407 150.096 188.788 149.239 189.947 148.19L188.605 146.707ZM185.053 148.921C183.702 149.471 182.059 149.762 180.097 149.762V151.762C182.25 151.762 184.161 151.443 185.806 150.774L185.053 148.921ZM180.097 149.762C177.619 149.762 175.397 149.269 173.414 148.302L172.537 150.099C174.82 151.213 177.346 151.762 180.097 151.762V149.762ZM173.427 148.308C171.463 147.314 169.921 145.966 168.778 144.263L167.118 145.378C168.463 147.382 170.273 148.953 172.524 150.092L173.427 148.308ZM168.787 144.276C167.68 142.57 167.12 140.629 167.12 138.422H165.12C165.12 140.988 165.778 143.313 167.109 145.365L168.787 144.276ZM167.12 138.422C167.12 136.391 167.502 134.627 168.238 133.107L166.439 132.235C165.551 134.066 165.12 136.137 165.12 138.422H167.12ZM168.238 133.107C168.976 131.586 170.059 130.303 171.506 129.253L170.331 127.634C168.63 128.869 167.326 130.404 166.439 132.235L168.238 133.107ZM171.508 129.251C172.98 128.176 174.847 127.347 177.136 126.787L176.661 124.844C174.176 125.452 172.056 126.375 170.329 127.636L171.508 129.251ZM177.146 126.784C179.433 126.2 182.114 125.901 185.201 125.901V123.901C181.991 123.901 179.137 124.212 176.651 124.847L177.146 126.784ZM185.201 125.901H191.561V123.901H185.201V125.901ZM237.6 108.791H238.6V107.791H237.6V108.791ZM237.6 116.561V117.561H238.6V116.561H237.6ZM213.605 116.561H212.605V117.561H213.605V116.561ZM213.605 108.791V107.791H212.605V108.791H213.605ZM219.547 98.6221V97.6221H218.547V98.6221H219.547ZM230.516 98.6221H231.516V97.6221H230.516V98.6221ZM230.973 140.326L230.071 140.759L230.078 140.773L230.085 140.788L230.973 140.326ZM232.42 141.659L232.049 142.588L232.065 142.594L232.081 142.6L232.42 141.659ZM236.647 141.926L236.742 142.921L236.762 142.919L236.783 142.917L236.647 141.926ZM238.057 141.697L239.057 141.693L239.051 140.479L237.861 140.717L238.057 141.697ZM238.095 149.771L238.403 150.723L239.098 150.497L239.095 149.767L238.095 149.771ZM225.107 149.581L224.692 150.491L224.699 150.494L224.707 150.498L225.107 149.581ZM236.6 108.791V116.561H238.6V108.791H236.6ZM237.6 115.561H213.605V117.561H237.6V115.561ZM214.605 116.561V108.791H212.605V116.561H214.605ZM213.605 109.791H237.6V107.791H213.605V109.791ZM219.547 99.6221H230.516V97.6221H219.547V99.6221ZM229.516 98.6221V137.584H231.516V98.6221H229.516ZM229.516 137.584C229.516 138.837 229.671 139.926 230.071 140.759L231.874 139.893C231.665 139.457 231.516 138.718 231.516 137.584H229.516ZM230.085 140.788C230.52 141.624 231.18 142.24 232.049 142.588L232.791 140.731C232.39 140.57 232.085 140.298 231.86 139.865L230.085 140.788ZM232.081 142.6C232.86 142.881 233.785 143.002 234.819 143.002V141.002C233.924 141.002 233.249 140.895 232.759 140.718L232.081 142.6ZM234.819 143.002C235.528 143.002 236.17 142.976 236.742 142.921L236.553 140.93C236.058 140.977 235.481 141.002 234.819 141.002V143.002ZM236.783 142.917C237.353 142.839 237.845 142.759 238.253 142.678L237.861 140.717C237.507 140.787 237.059 140.86 236.512 140.935L236.783 142.917ZM237.057 141.702L237.095 149.776L239.095 149.767L239.057 141.693L237.057 141.702ZM237.786 148.82C236.9 149.108 235.935 149.338 234.887 149.508L235.209 151.482C236.345 151.297 237.41 151.045 238.403 150.723L237.786 148.82ZM234.887 149.508C233.858 149.676 232.706 149.762 231.43 149.762V151.762C232.794 151.762 234.055 151.67 235.209 151.482L234.887 149.508ZM231.43 149.762C229.125 149.762 227.159 149.386 225.508 148.665L224.707 150.498C226.661 151.351 228.91 151.762 231.43 151.762V149.762ZM225.523 148.672C223.95 147.953 222.738 146.813 221.873 145.219L220.115 146.173C221.18 148.134 222.71 149.585 224.692 150.491L225.523 148.672ZM221.873 145.219C221.015 143.638 220.547 141.484 220.547 138.688H218.547C218.547 141.682 219.044 144.2 220.115 146.173L221.873 145.219ZM220.547 138.688V98.6221H218.547V138.688H220.547ZM250.198 120.674L251.145 120.996L251.146 120.993L250.198 120.674ZM260.063 109.629L260.459 110.547L260.467 110.544L260.063 109.629ZM276.706 109.629L276.305 110.545L276.313 110.549L276.706 109.629ZM282.838 114.009L282.087 114.669L282.092 114.674L282.838 114.009ZM286.647 120.674L285.699 120.993L285.7 120.996L286.647 120.674ZM286.647 138.155L287.593 138.477L287.594 138.474L286.647 138.155ZM282.838 144.82L282.087 144.16L282.087 144.16L282.838 144.82ZM260.101 149.2L259.705 150.118L259.708 150.12L260.101 149.2ZM253.969 144.82L253.213 145.475L253.218 145.481L253.223 145.486L253.969 144.82ZM250.198 138.155L249.251 138.474L249.252 138.477L250.198 138.155ZM261.777 138.612L260.911 139.113L260.917 139.124L260.924 139.135L261.777 138.612ZM274.992 138.612L275.853 139.121L275.858 139.113L274.992 138.612ZM276.44 134.651L275.463 134.436L275.461 134.444L275.46 134.452L276.44 134.651ZM276.44 124.292L275.46 124.491L275.462 124.501L275.464 124.511L276.44 124.292ZM274.954 120.331L274.084 120.823L274.09 120.834L274.097 120.846L274.954 120.331ZM264.404 117.589L263.887 116.733L263.878 116.739L264.404 117.589ZM261.777 120.331L260.914 119.825L260.911 119.831L261.777 120.331ZM260.329 124.292L261.309 124.495L261.309 124.491L260.329 124.292ZM249.904 129.814V129.015H247.904V129.814H249.904ZM249.904 129.015C249.904 126.089 250.321 123.419 251.145 120.996L249.252 120.352C248.349 123.007 247.904 125.897 247.904 129.015H249.904ZM251.146 120.993C251.971 118.544 253.164 116.44 254.72 114.669L253.218 113.349C251.473 115.335 250.153 117.675 249.251 120.355L251.146 120.993ZM254.72 114.669C256.268 112.907 258.176 111.532 260.459 110.547L259.666 108.711C257.125 109.807 254.971 111.353 253.218 113.349L254.72 114.669ZM260.467 110.544C262.731 109.543 265.356 109.029 268.365 109.029V107.029C265.128 107.029 262.219 107.582 259.658 108.714L260.467 110.544ZM268.365 109.029C271.374 109.029 274.014 109.543 276.305 110.545L277.107 108.713C274.523 107.582 271.603 107.029 268.365 107.029V109.029ZM276.313 110.549C278.622 111.534 280.541 112.909 282.087 114.669L283.589 113.349C281.835 111.351 279.666 109.805 277.099 108.709L276.313 110.549ZM282.092 114.674C283.671 116.445 284.875 118.547 285.699 120.993L287.594 120.355C286.691 117.672 285.357 115.33 283.584 113.343L282.092 114.674ZM285.7 120.996C286.524 123.419 286.942 126.089 286.942 129.015H288.942C288.942 125.897 288.496 123.007 287.593 120.352L285.7 120.996ZM286.942 129.015V129.814H288.942V129.015H286.942ZM286.942 129.814C286.942 132.714 286.524 135.385 285.699 137.836L287.594 138.474C288.496 135.797 288.942 132.907 288.942 129.814H286.942ZM285.7 137.833C284.877 140.255 283.671 142.36 282.087 144.16L283.589 145.481C285.357 143.472 286.69 141.134 287.593 138.477L285.7 137.833ZM282.087 144.16C280.539 145.922 278.631 147.297 276.348 148.282L277.141 150.118C279.682 149.022 281.836 147.476 283.589 145.48L282.087 144.16ZM276.348 148.282C274.082 149.26 271.454 149.762 268.442 149.762V151.762C271.676 151.762 274.582 151.223 277.141 150.118L276.348 148.282ZM268.442 149.762C265.43 149.762 262.787 149.26 260.494 148.281L259.708 150.12C262.29 151.222 265.207 151.762 268.442 151.762V149.762ZM260.497 148.282C258.213 147.296 256.29 145.92 254.715 144.155L253.223 145.486C255 147.478 257.165 149.022 259.705 150.118L260.497 148.282ZM254.725 144.165C253.164 142.365 251.97 140.258 251.145 137.833L249.252 138.477C250.154 141.131 251.473 143.467 253.213 145.475L254.725 144.165ZM251.146 137.836C250.321 135.385 249.904 132.714 249.904 129.814H247.904C247.904 132.907 248.349 135.797 249.251 138.474L251.146 137.836ZM258.872 129.015V129.814H260.872V129.015H258.872ZM258.872 129.814C258.872 131.6 259.03 133.279 259.349 134.851L261.309 134.452C261.019 133.027 260.872 131.483 260.872 129.814H258.872ZM259.349 134.851C259.672 136.438 260.189 137.863 260.911 139.113L262.642 138.112C262.044 137.076 261.596 135.861 261.309 134.452L259.349 134.851ZM260.924 139.135C261.693 140.388 262.7 141.384 263.94 142.105L264.945 140.376C264.002 139.827 263.231 139.071 262.629 138.089L260.924 139.135ZM263.94 142.105C265.218 142.848 266.734 143.192 268.442 143.192V141.192C267.001 141.192 265.851 140.902 264.945 140.376L263.94 142.105ZM268.442 143.192C270.105 143.192 271.594 142.845 272.867 142.105L271.862 140.376C270.951 140.905 269.825 141.192 268.442 141.192V143.192ZM272.867 142.105C274.111 141.382 275.109 140.381 275.853 139.121L274.131 138.104C273.556 139.078 272.802 139.829 271.862 140.376L272.867 142.105ZM275.858 139.113C276.58 137.863 277.097 136.438 277.42 134.851L275.46 134.452C275.173 135.861 274.725 137.076 274.127 138.112L275.858 139.113ZM277.416 134.867C277.764 133.29 277.935 131.604 277.935 129.814H275.935C275.935 131.478 275.776 133.017 275.463 134.436L277.416 134.867ZM277.935 129.814V129.015H275.935V129.814H277.935ZM277.935 129.015C277.935 127.273 277.763 125.625 277.415 124.073L275.464 124.511C275.776 125.904 275.935 127.404 275.935 129.015H277.935ZM277.42 124.093C277.096 122.5 276.564 121.07 275.812 119.817L274.097 120.846C274.716 121.878 275.174 123.088 275.46 124.491L277.42 124.093ZM275.825 119.839C275.085 118.529 274.09 117.487 272.844 116.733L271.809 118.445C272.746 119.011 273.504 119.797 274.084 120.823L275.825 119.839ZM272.844 116.733C271.566 115.96 270.058 115.599 268.365 115.599V117.599C269.771 117.599 270.904 117.897 271.809 118.445L272.844 116.733ZM268.365 115.599C266.673 115.599 265.165 115.96 263.887 116.733L264.922 118.445C265.827 117.897 266.96 117.599 268.365 117.599V115.599ZM263.878 116.739C262.663 117.491 261.675 118.528 260.914 119.825L262.639 120.837C263.249 119.798 264.014 119.007 264.931 118.439L263.878 116.739ZM260.911 119.831C260.189 121.08 259.672 122.505 259.349 124.093L261.309 124.491C261.596 123.083 262.044 121.867 262.642 120.831L260.911 119.831ZM259.35 124.089C259.03 125.636 258.872 127.278 258.872 129.015H260.872C260.872 127.399 261.019 125.894 261.309 124.495L259.35 124.089ZM315.889 142.002L314.925 141.737L314.893 141.853L314.889 141.973L315.889 142.002ZM325.03 108.791V107.791H324.268L324.066 108.526L325.03 108.791ZM336.494 108.791L337.441 109.111L337.886 107.791H336.494V108.791ZM322.592 150V151H323.31L323.54 150.32L322.592 150ZM315.661 150L314.661 149.971L314.632 151H315.661V150ZM309.605 108.791L310.569 108.525L310.366 107.791H309.605V108.791ZM318.784 142.04L319.783 142.016L319.78 141.893L319.748 141.774L318.784 142.04ZM318.974 150V151H319.998L319.974 149.976L318.974 150ZM312.004 150L311.057 150.32L311.286 151H312.004V150ZM298.103 108.791V107.791H296.71L297.155 109.111L298.103 108.791ZM316.853 142.267L325.994 109.056L324.066 108.526L314.925 141.737L316.853 142.267ZM325.03 109.791H336.494V107.791H325.03V109.791ZM335.546 108.471L321.645 149.68L323.54 150.32L337.441 109.111L335.546 108.471ZM322.592 149H315.661V151H322.592V149ZM316.66 150.029L316.889 142.031L314.889 141.973L314.661 149.971L316.66 150.029ZM308.641 109.057L317.82 142.306L319.748 141.774L310.569 108.525L308.641 109.057ZM317.784 142.064L317.974 150.024L319.974 149.976L319.783 142.016L317.784 142.064ZM318.974 149H312.004V151H318.974V149ZM312.952 149.68L299.05 108.471L297.155 109.111L311.057 150.32L312.952 149.68ZM298.103 109.791H309.605V107.791H298.103V109.791ZM370.192 118.96L369.279 119.368L369.283 119.377L370.192 118.96ZM368.173 116.713L367.659 117.57L367.67 117.577L368.173 116.713ZM361.546 116.561L361.962 117.47L361.973 117.465L361.983 117.46L361.546 116.561ZM359.49 118.351L360.335 118.886L360.339 118.879L360.342 118.873L359.49 118.351ZM358.766 121.055V122.055H359.766V121.055H358.766ZM347.797 121.055H346.797V122.055H347.797V121.055ZM352.558 111.914L353.169 112.706L353.177 112.7L352.558 111.914ZM358.081 109.058L357.778 108.105L357.775 108.106L358.081 109.058ZM379.713 114.428L378.881 114.982L378.886 114.989L379.713 114.428ZM382.303 145.62L381.321 145.81L381.322 145.813L382.303 145.62ZM383.522 149.353H384.522V149.116L384.416 148.905L383.522 149.353ZM383.522 150V151H384.522V150H383.522ZM372.439 150L371.537 150.431L371.808 151H372.439V150ZM371.22 145.811L370.231 145.958L370.233 145.967L370.234 145.975L371.22 145.811ZM372.287 124.901L373.287 124.889L373.275 123.901H372.287V124.901ZM372.363 131.109V132.109H373.375L373.363 131.097L372.363 131.109ZM359.833 133.014L360.481 133.775L360.489 133.768L360.497 133.761L359.833 133.014ZM358.309 135.07L357.387 134.684L357.382 134.696L357.377 134.709L358.309 135.07ZM358.5 140.212L357.63 140.705L357.633 140.711L357.637 140.718L358.5 140.212ZM360.366 141.964L359.897 142.847L359.908 142.853L359.919 142.858L360.366 141.964ZM370.344 139.146L369.529 138.566L369.524 138.574L369.519 138.581L370.344 139.146ZM371.411 136.403L372.26 135.875L370.509 133.064L370.411 136.374L371.411 136.403ZM374.305 141.05L375.237 141.413L375.419 140.946L375.154 140.521L374.305 141.05ZM372.629 144.287L371.786 143.75L371.781 143.757L371.777 143.764L372.629 144.287ZM370.002 147.448L370.673 148.19L370.682 148.181L370.002 147.448ZM366.155 149.848L366.532 150.774L366.538 150.771L366.545 150.768L366.155 149.848ZM353.701 149.2L353.249 150.092L353.256 150.096L353.262 150.099L353.701 149.2ZM348.673 144.82L347.834 145.365L347.839 145.371L347.843 145.378L348.673 144.82ZM351.644 128.443L352.232 129.253L352.234 129.251L351.644 128.443ZM357.624 125.815L357.861 126.787L357.871 126.784L357.624 125.815ZM371.839 140.707V122.35H369.839V140.707H371.839ZM371.839 122.35C371.839 120.924 371.607 119.644 371.101 118.542L369.283 119.377C369.641 120.155 369.839 121.135 369.839 122.35H371.839ZM371.105 118.552C370.588 117.396 369.772 116.488 368.677 115.849L367.67 117.577C368.403 118.005 368.933 118.595 369.279 119.368L371.105 118.552ZM368.688 115.855C367.596 115.2 366.246 114.913 364.708 114.913V116.913C366.013 116.913 366.973 117.159 367.659 117.57L368.688 115.855ZM364.708 114.913C363.372 114.913 362.162 115.15 361.11 115.661L361.983 117.46C362.708 117.108 363.606 116.913 364.708 116.913V114.913ZM361.131 115.651C360.072 116.135 359.23 116.861 358.637 117.828L360.342 118.873C360.715 118.266 361.243 117.799 361.962 117.47L361.131 115.651ZM358.645 117.816C358.046 118.761 357.766 119.854 357.766 121.055H359.766C359.766 120.173 359.968 119.464 360.335 118.886L358.645 117.816ZM358.766 120.055H347.797V122.055H358.766V120.055ZM348.797 121.055C348.797 119.464 349.165 117.958 349.905 116.524L348.128 115.607C347.243 117.321 346.797 119.141 346.797 121.055H348.797ZM349.905 116.524C350.643 115.093 351.724 113.819 353.169 112.706L351.948 111.122C350.295 112.395 349.014 113.889 348.128 115.607L349.905 116.524ZM353.177 112.7C354.62 111.564 356.352 110.664 358.387 110.01L357.775 108.106C355.544 108.823 353.594 109.827 351.94 111.128L353.177 112.7ZM358.383 110.011C360.428 109.361 362.736 109.029 365.317 109.029V107.029C362.566 107.029 360.05 107.383 357.778 108.105L358.383 110.011ZM365.317 109.029C368.405 109.029 371.111 109.544 373.454 110.548L374.242 108.71C371.609 107.581 368.627 107.029 365.317 107.029V109.029ZM373.454 110.548C375.775 111.543 377.573 113.02 378.881 114.982L380.546 113.873C379.01 111.57 376.898 109.848 374.242 108.71L373.454 110.548ZM378.886 114.989C380.196 116.92 380.884 119.378 380.884 122.426H382.884C382.884 119.075 382.125 116.201 380.541 113.866L378.886 114.989ZM380.884 122.426V140.06H382.884V122.426H380.884ZM380.884 140.06C380.884 142.353 381.026 144.276 381.321 145.81L383.285 145.431C383.023 144.069 382.884 142.286 382.884 140.06H380.884ZM381.322 145.813C381.615 147.305 382.047 148.638 382.628 149.8L384.416 148.905C383.931 147.935 383.55 146.779 383.285 145.427L381.322 145.813ZM382.522 149.353V150H384.522V149.353H382.522ZM383.522 149H372.439V151H383.522V149ZM373.342 149.569C372.86 148.561 372.476 147.261 372.207 145.646L370.234 145.975C370.523 147.711 370.951 149.204 371.537 150.431L373.342 149.569ZM372.209 145.663C371.963 144.01 371.839 142.358 371.839 140.707H369.839C369.839 142.458 369.97 144.209 370.231 145.958L372.209 145.663ZM371.287 124.914L371.363 131.122L373.363 131.097L373.287 124.889L371.287 124.914ZM372.363 130.109H366.231V132.109H372.363V130.109ZM366.231 130.109C364.712 130.109 363.351 130.282 362.165 130.649L362.756 132.56C363.703 132.267 364.856 132.109 366.231 132.109V130.109ZM362.165 130.649C360.991 131.013 359.981 131.544 359.168 132.266L360.497 133.761C361.055 133.265 361.797 132.857 362.756 132.56L362.165 130.649ZM359.184 132.252C358.386 132.932 357.781 133.744 357.387 134.684L359.231 135.457C359.497 134.822 359.908 134.263 360.481 133.775L359.184 132.252ZM357.377 134.709C357.023 135.624 356.852 136.611 356.852 137.66H358.852C358.852 136.83 358.986 136.091 359.242 135.431L357.377 134.709ZM356.852 137.66C356.852 138.759 357.107 139.782 357.63 140.705L359.37 139.719C359.029 139.118 358.852 138.44 358.852 137.66H356.852ZM357.637 140.718C358.17 141.626 358.934 142.335 359.897 142.847L360.835 141.081C360.173 140.729 359.693 140.27 359.362 139.706L357.637 140.718ZM359.919 142.858C360.895 143.347 362.006 143.573 363.222 143.573V141.573C362.255 141.573 361.461 141.394 360.813 141.069L359.919 142.858ZM363.222 143.573C365.007 143.573 366.612 143.215 368.002 142.462L367.05 140.704C366.003 141.271 364.738 141.573 363.222 141.573V143.573ZM368.002 142.462C369.335 141.74 370.405 140.828 371.17 139.71L369.519 138.581C368.964 139.392 368.155 140.105 367.05 140.704L368.002 142.462ZM371.16 139.725C371.918 138.657 372.377 137.554 372.41 136.433L370.411 136.374C370.393 136.979 370.141 137.705 369.529 138.566L371.16 139.725ZM370.562 136.932L373.456 141.579L375.154 140.521L372.26 135.875L370.562 136.932ZM373.374 140.686C372.995 141.657 372.468 142.678 371.786 143.75L373.473 144.824C374.213 143.662 374.803 142.525 375.237 141.413L373.374 140.686ZM371.777 143.764C371.144 144.796 370.328 145.78 369.321 146.715L370.682 148.181C371.808 147.136 372.744 146.013 373.482 144.81L371.777 143.764ZM369.331 146.707C368.357 147.587 367.173 148.33 365.765 148.927L366.545 150.768C368.133 150.096 369.513 149.239 370.672 148.19L369.331 146.707ZM365.778 148.921C364.427 149.471 362.784 149.762 360.823 149.762V151.762C362.975 151.762 364.886 151.443 366.532 150.774L365.778 148.921ZM360.823 149.762C358.344 149.762 356.122 149.269 354.139 148.302L353.262 150.099C355.545 151.213 358.071 151.762 360.823 151.762V149.762ZM354.152 148.308C352.189 147.314 350.647 145.966 349.504 144.263L347.843 145.378C349.188 147.382 350.998 148.953 353.249 150.092L354.152 148.308ZM349.512 144.276C348.406 142.57 347.845 140.629 347.845 138.422H345.845C345.845 140.988 346.504 143.313 347.834 145.365L349.512 144.276ZM347.845 138.422C347.845 136.391 348.227 134.627 348.964 133.107L347.164 132.235C346.276 134.066 345.845 136.137 345.845 138.422H347.845ZM348.964 133.107C349.701 131.586 350.784 130.303 352.232 129.253L351.057 127.634C349.355 128.869 348.052 130.404 347.164 132.235L348.964 133.107ZM352.234 129.251C353.706 128.176 355.572 127.347 357.861 126.787L357.386 124.844C354.902 125.452 352.782 126.375 351.054 127.636L352.234 129.251ZM357.871 126.784C360.158 126.2 362.839 125.901 365.926 125.901V123.901C362.716 123.901 359.863 124.212 357.376 124.847L357.871 126.784ZM365.926 125.901H372.287V123.901H365.926V125.901ZM449.053 94.5469L450 94.8669L450.446 93.5469H449.053V94.5469ZM428.715 154.761V155.761H429.433L429.662 155.081L428.715 154.761ZM420.564 154.761L419.617 154.441L419.171 155.761H420.564V154.761ZM440.902 94.5469V93.5469H440.185L439.955 94.2269L440.902 94.5469ZM448.105 94.2269L427.767 154.441L429.662 155.081L450 94.8669L448.105 94.2269ZM428.715 153.761H420.564V155.761H428.715V153.761ZM421.512 155.081L441.85 94.8669L439.955 94.2269L419.617 154.441L421.512 155.081ZM440.902 95.5469H449.053V93.5469H440.902V95.5469ZM486.788 126.996L486.452 127.938L486.491 127.952L486.532 127.963L486.788 126.996ZM462.375 118.274H461.375V118.979L462.039 119.216L462.375 118.274ZM462.375 108.029L462.763 107.107L461.375 106.524V108.029H462.375ZM495.548 121.969H496.548V121.304L495.935 121.047L495.548 121.969ZM495.548 129.319L495.292 130.286L496.548 130.619V129.319H495.548ZM462.375 134.309L462.033 133.369L461.375 133.609V134.309H462.375ZM486.826 125.396L486.593 124.424L486.537 124.437L486.484 124.457L486.826 125.396ZM495.548 123.302H496.548V122.033L495.315 122.329L495.548 123.302ZM495.548 130.614L495.935 131.536L496.548 131.279V130.614H495.548ZM462.375 144.554H461.375V146.059L462.763 145.476L462.375 144.554ZM487.125 126.054L462.712 117.333L462.039 119.216L486.452 127.938L487.125 126.054ZM463.375 118.274V108.029H461.375V118.274H463.375ZM461.988 108.951L495.161 122.891L495.935 121.047L462.763 107.107L461.988 108.951ZM494.548 121.969V129.319H496.548V121.969H494.548ZM495.804 128.353L487.045 126.03L486.532 127.963L495.292 130.286L495.804 128.353ZM462.718 135.248L487.169 126.336L486.484 124.457L462.033 133.369L462.718 135.248ZM487.06 126.369L495.782 124.274L495.315 122.329L486.593 124.424L487.06 126.369ZM494.548 123.302V130.614H496.548V123.302H494.548ZM495.161 129.692L461.988 143.632L462.763 145.476L495.935 131.536L495.161 129.692ZM463.375 144.554V134.309H461.375V144.554H463.375Z" fill="black"/>
</g>
<defs>
<filter id="filter0_d_203_9" x="0.0566406" y="0.5" width="499.491" height="162.261" filterUnits="userSpaceOnUse" color-interpolation-filters="sRGB">
<feFlood flood-opacity="0" result="BackgroundImageFix"/>
<feColorMatrix in="SourceAlpha" type="matrix" values="0 0 0 0 0 0 0 0 0 0 0 0 0 0 0 0 0 0 127 0" result="hardAlpha"/>
<feOffset dy="4"/>
<feGaussianBlur stdDeviation="2"/>
<feComposite in2="hardAlpha" operator="out"/>
<feColorMatrix type="matrix" values="0 0 0 0 0 0 0 0 0 0 0 0 0 0 0 0 0 0 0.25 0"/>
<feBlend mode="normal" in2="BackgroundImageFix" result="effect1_dropShadow_203_9"/>
<feBlend mode="normal" in="SourceGraphic" in2="effect1_dropShadow_203_9" result="shape"/>
</filter>
</defs>
</svg>
