<svg width="136" height="133" viewBox="0 0 136 133" fill="none" xmlns="http://www.w3.org/2000/svg">
<g clip-path="url(#clip0_206_38)" filter="url(#filter0_d_206_38)">
<path d="M92.69 88.11C83.69 106.51 67.93 118.89 47.08 122.96C43.8831 123.743 40.6013 124.126 37.31 124.1C25.31 124.1 14.31 119.1 8.97 110.91C1.8 100 -0.640001 76.87 23 59.76C23.48 62.37 24.46 65.95 25.11 68.07C20.4693 71.5177 16.6708 75.9727 14 81.1C9.6 89.74 10.09 98.37 15.3 106.35C18.9 111.73 24.6 115 31.93 116C41.0854 117.159 50.3733 115.41 58.48 111C71.19 104.32 79.66 96.34 85.2 85.43C83.6335 83.8111 82.7063 81.6797 82.59 79.43C82.5063 77.0159 83.3837 74.6671 85.0298 72.8992C86.6758 71.1313 88.956 70.0886 91.37 70H91.71C94.058 69.9882 96.3206 70.8795 98.0297 72.4895C99.7389 74.0994 100.764 76.3048 100.892 78.6493C101.021 80.9937 100.243 83.2979 98.7199 85.0849C97.1969 86.872 95.0452 88.0051 92.71 88.25L92.69 88.11ZM121.36 67.91C133.57 81.75 133.9 98.04 129.18 107.49C124.78 116.12 113.18 124.76 97.58 124.76C90.2976 124.611 83.1337 122.889 76.58 119.71C78.87 118.08 82.12 115.47 83.91 113.84C88.9639 116.029 94.4027 117.192 99.91 117.26C110.01 117.26 117.66 112.54 122.22 103.91C125.15 98.21 125.32 91.53 122.55 84.69C119.151 76.0838 113.103 68.7818 105.28 63.84C95.0167 56.9214 82.9175 53.2332 70.54 53.25H67.61C66.9268 54.8283 65.8153 56.1837 64.4014 57.1628C62.9875 58.1419 61.3277 58.7056 59.61 58.79H59.3C56.9242 58.7608 54.6533 57.8065 52.9697 56.1299C51.2861 54.4533 50.3225 52.1864 50.2834 49.8107C50.2444 47.435 51.133 45.1377 52.7606 43.4067C54.3881 41.6756 56.6264 40.6473 59 40.54H59.33C60.9841 40.5412 62.6058 40.9983 64.0171 41.8609C65.4284 42.7236 66.5746 43.9585 67.33 45.43H69.94C90.74 45.43 109 53.41 121.36 67.91ZM38.61 90.91C38.4388 89.2494 38.841 87.5802 39.75 86.18C30.63 70.38 25.75 50.35 33.24 29.5C38.61 13.83 52.13 3.23999 66.79 3.23999C82.43 3.23999 98.72 16.93 100.67 43.31C98.23 42.5 94.67 41.31 92.53 40.87C92 32.24 84.71 10.74 67.44 11.06C61.25 11.23 52.13 14.16 47.44 20.18C41.6386 27.3662 38.2638 36.206 37.8 45.43C36.7007 58.0777 39.6681 70.7461 46.27 81.59C46.6345 81.4568 47.023 81.4023 47.41 81.43H47.73C50.1488 81.3862 52.4859 82.3051 54.2271 83.9845C55.9684 85.6639 56.9712 87.9662 57.015 90.385C57.0588 92.8038 56.1399 95.1409 54.4605 96.8821C52.7811 98.6234 50.4788 99.6262 48.06 99.67H47.73C45.3703 99.6616 43.1049 98.7429 41.4058 97.1054C39.7068 95.4678 38.7053 93.2378 38.61 90.88V90.91Z" fill="#764ABC"/>
</g>
<defs>
<filter id="filter0_d_206_38" x="0" y="0" width="136" height="136" filterUnits="userSpaceOnUse" color-interpolation-filters="sRGB">
<feFlood flood-opacity="0" result="BackgroundImageFix"/>
<feColorMatrix in="SourceAlpha" type="matrix" values="0 0 0 0 0 0 0 0 0 0 0 0 0 0 0 0 0 0 127 0" result="hardAlpha"/>
<feOffset dy="4"/>
<feGaussianBlur stdDeviation="2"/>
<feComposite in2="hardAlpha" operator="out"/>
<feColorMatrix type="matrix" values="0 0 0 0 0 0 0 0 0 0 0 0 0 0 0 0 0 0 0.25 0"/>
<feBlend mode="normal" in2="BackgroundImageFix" result="effect1_dropShadow_206_38"/>
<feBlend mode="normal" in="SourceGraphic" in2="effect1_dropShadow_206_38" result="shape"/>
</filter>
<clipPath id="clip0_206_38">
<rect width="128" height="128" fill="white" transform="translate(4)"/>
</clipPath>
</defs>
</svg>
